<?xml version="1.0" encoding="UTF-8" standalone="no"?>
<!-- Generator: Adobe Illustrator 19.1.0, SVG Export Plug-In . SVG Version: 6.00 Build 0)  -->

<svg
   xmlns:dc="http://purl.org/dc/elements/1.1/"
   xmlns:cc="http://creativecommons.org/ns#"
   xmlns:rdf="http://www.w3.org/1999/02/22-rdf-syntax-ns#"
   xmlns:svg="http://www.w3.org/2000/svg"
   xmlns="http://www.w3.org/2000/svg"
   xmlns:sodipodi="http://sodipodi.sourceforge.net/DTD/sodipodi-0.dtd"
   xmlns:inkscape="http://www.inkscape.org/namespaces/inkscape"
   version="1.1"
   id="svg12341"
   inkscape:version="0.92.1 r15371"
   sodipodi:docname="blue-wallpaper_1920x1080.svg"
   x="0px"
   y="0px"
   viewBox="3780 -140 1920 1080"
   style="enable-background:new 3780 -140 1920 1080;"
   xml:space="preserve"
   inkscape:export-filename="/home/yunusem/HDD/vagrant-jessie64/desktop-base/kde-wallpaper/blue/contents/images/1920x1080.png"
   inkscape:export-xdpi="96"
   inkscape:export-ydpi="96"><metadata
     id="metadata83"><rdf:RDF><cc:Work
         rdf:about=""><dc:format>image/svg+xml</dc:format><dc:type
           rdf:resource="http://purl.org/dc/dcmitype/StillImage" /></cc:Work></rdf:RDF></metadata><defs
     id="defs81"><filter
       style="color-interpolation-filters:sRGB;"
       inkscape:label="Drop Shadow"
       id="filter1590"><feFlood
         flood-opacity="1"
         flood-color="rgb(56,56,56)"
         result="flood"
         id="feFlood1580" /><feComposite
         in="flood"
         in2="SourceGraphic"
         operator="in"
         result="composite1"
         id="feComposite1582" /><feGaussianBlur
         in="composite1"
         stdDeviation="0"
         result="blur"
         id="feGaussianBlur1584" /><feOffset
         dx="3"
         dy="3"
         result="offset"
         id="feOffset1586" /><feComposite
         in="SourceGraphic"
         in2="offset"
         operator="over"
         result="composite2"
         id="feComposite1588" /></filter><filter
       style="color-interpolation-filters:sRGB;"
       inkscape:label="Drop Shadow"
       id="filter1602"><feFlood
         flood-opacity="1"
         flood-color="rgb(56,56,56)"
         result="flood"
         id="feFlood1592" /><feComposite
         in="flood"
         in2="SourceGraphic"
         operator="in"
         result="composite1"
         id="feComposite1594" /><feGaussianBlur
         in="composite1"
         stdDeviation="0"
         result="blur"
         id="feGaussianBlur1596" /><feOffset
         dx="3"
         dy="3"
         result="offset"
         id="feOffset1598" /><feComposite
         in="SourceGraphic"
         in2="offset"
         operator="over"
         result="composite2"
         id="feComposite1600" /></filter></defs><sodipodi:namedview
     pagecolor="#ffffff"
     bordercolor="#666666"
     borderopacity="1"
     objecttolerance="10"
     gridtolerance="10"
     guidetolerance="10"
     inkscape:pageopacity="0"
     inkscape:pageshadow="2"
     inkscape:window-width="1514"
     inkscape:window-height="821"
     id="namedview79"
     showgrid="false"
     inkscape:zoom="0.52001811"
     inkscape:cx="624.96532"
     inkscape:cy="443.16745"
     inkscape:window-x="2185"
     inkscape:window-y="139"
     inkscape:window-maximized="0"
     inkscape:current-layer="svg12341" /><style
     type="text/css"
     id="style3">
	.st0{fill:#1A1A1A;}
	.st1{fill:#D3A809;}
</style><rect
     style="fill:#094766;fill-opacity:1;stroke-width:1.05456197"
     id="rect5146"
     height="1080"
     width="1920"
     class="st0"
     y="-140"
     x="3780"
     inkscape:export-filename="/home/yunusem/HDD/vagrant-jessie64/desktop-base/kde-wallpaper/blue/contents/images/1920x1080.png"
     inkscape:export-xdpi="96"
     inkscape:export-ydpi="96" /><path
     style="fill:#11668a;fill-opacity:0.58823529;stroke-width:1.05369425"
     inkscape:connector-curvature="0"
     id="path5148"
     d="M 3790.2123,936.09803 3780,939.78907 5700,939.99999 V 527.23562 c -5.1587,0.94912 -11.265,1.68733 -19.5821,2.10917 -21.1614,-2.63646 -29.7944,-14.86964 -48.7449,-22.04082 l 10.0016,10.22947 c -28.4257,10.75676 -20.4244,-4.42925 -42.428,8.1203 l -0.4211,-17.61156 c -7.4749,9.3858 -28.0046,4.11288 -36.7429,0.31638 l -6.3168,12.76047 c -18.7399,-4.95655 -30.8472,-6.64388 -37.5851,-17.08427 l 2.9478,10.86222 c -7.5802,-6.32751 -69.4851,9.28034 -50.2188,-12.02226 -4.9482,3.16375 -9.0541,9.3858 -20.7402,9.49126 l -3.1584,-10.75677 c -16.3185,4.95655 -34.4268,9.70218 -40.1119,4.21834 8.633,-3.90196 11.0544,-9.17488 13.3706,-14.34235 -70.6432,8.01485 -10.0016,37.64867 -71.4854,47.9836 l -0.3159,-7.27663 -14.4234,10.01855 -17.7924,-6.43297 c -18.2135,27.63012 -86.6458,12.12772 -121.2831,31.95391 -14.1076,4.74563 -36.0059,-6.22205 -63.1683,0.84367 l 3.8954,10.54585 c -24.4251,-6.96026 -108.2283,2.95283 -134.1273,-17.82248 -19.0558,12.76047 2.632,1.79279 4.0006,10.54584 -38.2168,19.82619 -44.5336,3.48013 -67.1689,1.58188 -23.7934,10.75676 20.0033,0.10546 8.3172,11.07314 -40.0066,-0.10546 -28.1099,20.0371 -76.7495,23.0954 -6.001,-5.06201 11.265,-6.8548 15.1604,-12.02227 -30.7419,18.24432 -93.8049,25.09911 -142.3392,37.96505 -63.9053,7.38209 -133.3904,15.39693 -210.6663,24.3609 l -0.3158,4.21834 c -29.4785,-3.69105 -56.9567,12.76047 -90.0148,15.81876 l 16.9501,2.00371 c -19.2663,11.70589 -31.8999,10.33493 -50.9557,17.92794 l -13.6865,-8.64759 c -20.4244,8.85851 -7.159,11.81134 -21.1613,21.51352 -21.1614,-2.42554 -60.6416,14.23689 -70.0116,16.13514 -7.6854,-3.58558 6.2116,-9.17488 8.5278,-13.1823 -24.1093,10.12401 -19.5822,20.45894 -50.6399,28.36832 l -1.2634,-2.95284 c -70.1168,34.80129 -165.0798,55.36569 -244.1454,88.79602 5.6851,-1.05459 4.9482,1.79279 7.7907,3.37467 -85.2771,28.36832 -184.5566,59.79494 -242.9873,108.41129 2.9479,-1.16005 6.4221,-2.42555 10.0017,-3.58559 z"
     class="st2" /><g
     id="g5150"
     style="fill:#11668a;fill-opacity:0.58823529"
     transform="matrix(1.0528047,0,0,1.0545845,3706.0932,295.12157)"><path
       style="fill:#11668a;fill-opacity:0.58823529"
       inkscape:connector-curvature="0"
       id="path5152"
       d="m 1101.6,-249.6 c -5.3,-0.8 -11.4,-0.7 -11.1,-3.3 -5,3.7 -5.7,6 11.1,3.3 z"
       class="st2" /><polygon
       style="fill:#11668a;fill-opacity:0.58823529"
       id="polygon5154"
       points="375,-116.8 365,-117.7 351.3,-109.5 "
       class="st2" /><polygon
       style="fill:#11668a;fill-opacity:0.58823529"
       id="polygon5156"
       points="724,-195.6 671.6,-175.1 728.1,-195.1 "
       class="st2" /><path
       style="fill:#11668a;fill-opacity:0.58823529"
       inkscape:connector-curvature="0"
       id="path5158"
       d="m 1081.2,-229.6 24.4,-10 -4,-0.6 c -5.3,6 -14.7,6 -20.4,10.6 z"
       class="st2" /><path
       style="fill:#11668a;fill-opacity:0.58823529"
       inkscape:connector-curvature="0"
       id="path5160"
       d="m 71.5,-412.5 v 390.7 l 4.7,-1.7 c 44.2,-15 115.7,-22.9 152.5,-52.6 18.8,2.4 41.3,-15.7 51.3,-7.1 65.4,-13.7 86.4,-39.8 148.4,-56.8 4.8,-0.2 6.4,1.3 7.3,3.5 v -0.1 c 55.8,-30.7 107.4,-35.9 167.8,-55.8 15.1,-5 36.3,-9.2 40.1,-4.8 -9.7,4.3 -1,6.6 -8.7,11.1 20.8,-9.6 -2.3,-19 29.8,-24.6 l 0.3,18.7 c 8,-21.8 39.4,-6.1 59.3,-22.3 9.8,5.2 -4.2,12.8 -21.3,17.5 20.4,-1.6 19.7,-12.3 35.4,-15.8 l -11.2,18.7 c 13.2,-18.4 30.6,-4.3 41.1,-1.7 0.3,-3.9 -11.2,-13.4 9.9,-17.5 9.4,-0.2 5.7,4.7 8.3,6.4 0.3,-4 6.2,-12.6 19.9,-16.2 3.7,4.5 -7.4,9.8 -7.1,15.2 10.4,-2.7 18.6,-5.7 27.2,-3.3 17.4,-8.3 -2.8,-7.1 7.3,-15.1 29.2,-2.3 6.5,17.1 19.2,25.7 -20.2,11.6 -45.5,20.4 -56.6,27.1 l 39.2,-13.5 c -1.3,6.5 30,4.4 9.4,14.8 42.3,-3.1 90.6,-20.3 128.8,-33.7 -6,-0.9 -13.5,-0.6 -13.1,-4.6 19.6,-7.9 18.9,0 24,3.4 14.1,-7.4 10.2,-17.4 17.8,-27 32.9,1.9 36.1,-4.3 65.2,2.4 l -3.9,-9.9 c 20.5,4.2 19.8,-12 41.3,-10.3 1.6,2 -5.5,6.3 -11.2,10.1 17.1,-7.3 18.3,5.1 34.8,-2.7 l -11.2,14.3 c 13.7,-3.4 33.3,-11.4 28.3,0 21.6,-17.1 65,-21.5 93.8,-34.7 l -0.1,9.4 c 13.3,-14.2 57.5,-11.3 68.4,-27.1 l 3,3.2 28.6,-18.3 c 14.3,-1.7 12.2,12.7 12.6,8.7 30.4,-8.6 54.6,-13.7 75.3,-12.8 2.7,-13.1 34.8,-22.2 60.6,-28 126.5,-14.5 259.5,-42.4 377.2,-62.8 6.9,-0.5 14.8,-3 23.2,-6.3 l 4,-0.5 v -1.1 c 0.4,-0.2 -0.6,-12 -0.2,-12.2 z"
       class="st2" /></g><path
     style="fill:#eeeeee;fill-opacity:1;filter:url(#filter1590)"
     inkscape:connector-curvature="0"
     id="path3863"
     d="m 4842.1337,251.6979 c -0.9,-2.6 -3.6,-7.3 -6.1,-10.5 -2.5,-3.1 -6.5,-6.9 -9,-8.3 -2.5,-1.4 -13.7,1.7 -19.4,4.3 l -4.2,1.9 c -5.7,2.6 -10.4,4.8 -10.5,4.8 -0.1,0.1 -0.8,0 -1.3,-0.2 -0.5,-0.2 -6.9,-1.8 -13,-3.2 l -10.9,-2.6 c -6.1,-1.4 -13.1,-2.8 -15.6,-3 -2.5,-0.2 -13.2,1.5 -19.3,2.9 l -11.7,2.7 c -6.1,1.4 -11.5,2.7 -12,2.8 -0.5,0.2 -2,0.7 -2.1,0.6 -0.1,-0.1 -5,-2.3 -10.7,-4.9 l -4.2,-1.9 c -5.7,-2.6 -12.7,-4.9 -15.6,-5.1 -2.9,-0.2 -10.3,6 -12.8,9.1 -2.5,3.1 -5.3,7.8 -6.1,10.5 -0.9,2.6 3.9,13 7.4,18.2 l 7.2,10.6 c 3.5,5.2 5.4,11.2 4.3,13.3 -1.1,2.1 -2.7,6 -3.5,8.5 -0.8,2.5 0.1,13.6 1.2,19.8 l 2.2,13.2 c 1,6.2 3,13.3 4.4,15.8 1.4,2.5 12.1,7 18.2,8.5 l 2.7,0.7 c 0.5,0.1 0.9,0.3 1.4,0.4 -9,4.9 -17.4,10.7 -24.9,17.3 -1.1,1 0.3,2.5 1.4,1.7 9.4,-6.2 18.4,-12.1 27.9,-17.1 1.8,0.9 3.6,2.1 5.3,3.3 -7.7,6.2 -14.4,14.1 -19,21.3 -0.6,0.9 0.6,2 1.4,1.3 6.9,-6.6 13.1,-14.2 20.4,-20.4 1.5,1.3 2.8,2.7 3.8,4.1 l 0.6,0.8 c -8.3,8 -14.9,18.9 -18.8,28.2 -0.4,1 1,1.7 1.7,0.9 6.5,-8.6 11.7,-18.6 19,-26.4 l 2.4,3.4 c 3.7,5.1 8.4,10.7 10.6,12.4 2.2,1.7 11.3,3.2 15,3.2 3.6,0 8.8,-0.6 11.5,-1.4 2.7,-0.7 10.5,-9.1 14.1,-14.2 l 2.4,-3.4 c 7.3,7.9 12.6,17.9 19.1,26.5 0.7,0.9 2,-0.1 1.6,-1 -3.8,-9.2 -10.4,-20.1 -18.7,-28.1 l 0.5,-0.7 c 1,-1.4 2.4,-2.8 3.9,-4.2 7.2,6.1 13.4,13.7 20.2,20.2 0.9,0.9 2.1,-0.2 1.5,-1.2 -4.6,-7.1 -11.3,-15 -19,-21.2 1.7,-1.3 3.5,-2.4 5.4,-3.3 9.5,5.1 18.6,10.9 27.9,17.2 1.2,0.8 2.3,-0.9 1.3,-1.8 -7.4,-6.6 -15.8,-12.4 -24.7,-17.2 0.4,-0.1 0.8,-0.3 1.2,-0.4 l 2.8,-0.7 c 6.1,-1.5 13,-4 15.4,-5.6 2.4,-1.5 6,-12.6 7.1,-18.8 l 2.2,-13.2 c 1,-6.2 1.8,-13.4 1.8,-16 -0.1,-2.6 -3,-10.1 -4.1,-12.2 -1.1,-2.1 0.8,-8.1 4.3,-13.3 l 7.2,-10.6 c 3.5,-5.3 8.3,-15.7 7.3,-18.3 z"
     class="st1" /><g
     transform="translate(3760.9337,300.5979)"
     id="g3865"><path
       style="fill:#094766"
       inkscape:connector-curvature="0"
       id="path3867"
       d="m 911,-36.8 c -3.1,-4.6 -5.8,-8.7 -6,-9.2 0,0 0,0 0,-0.5 0,-0.6 0,-0.6 0,-0.6 0.2,-0.5 2.5,-3.6 5,-6.7 2.5,-3.1 4.9,-5.9 5.4,-6.1 0.5,-0.2 6.5,2.1 12.2,4.7 l 0.9,0.4 c 5.7,2.6 10.3,4.9 10.2,5 -0.1,0.2 -2.8,5.1 -5.7,10.6 l -5,9.4 c -3,5.6 -13.9,-2.4 -17,-7 z"
       class="st0" /><path
       style="fill:#094766"
       inkscape:connector-curvature="0"
       id="path3869"
       d="m 998.9,83.6 c -0.9,0.7 -6.3,1.3 -9.9,1.3 -3.6,0 -7.5,-0.3 -8.6,-0.7 -0.5,-0.2 -1.6,-1.2 -3,-2.8 l 7.6,-6.9 c 2.2,-2 4,-3.7 4,-3.7 0,0 1.8,1.7 4,3.7 l 7.7,7 c -0.8,1.2 -1.5,1.9 -1.8,2.1 z"
       class="st0" /><path
       style="fill:#094766"
       inkscape:connector-curvature="0"
       id="path3871"
       d="m 1055.8,19.9 -2.2,13.2 c -1,6.2 -2.3,11.9 -2.7,12.6 -0.5,0.8 -5.7,2.6 -10.3,3.8 -4.5,1.1 -8.1,1.3 -7.9,0.4 0.2,-0.9 -2.5,-7.3 -5.8,-12.2 -3.4,-4.9 -6.2,-8.8 -6.2,-8.6 0,0.2 0.8,4.2 1.6,8.6 0.9,4.4 1.5,9.1 1.4,10.4 -0.1,1.3 -1.6,4.4 -2.1,5.1 0,0 0,0 0,0.1 -5.8,-2.3 -11.6,-4.2 -17.5,-5.7 -1.6,-0.4 -2.5,2 -0.9,2.4 5.7,1.7 11.1,3.8 16.4,6.1 -0.7,1 -1.5,2.1 -2.3,3.2 -4.5,-2.4 -9.2,-4.1 -14,-4.5 -1.4,-0.1 -1.5,1.9 -0.2,2.1 4.6,0.9 8.7,2.6 12.4,4.8 -1,1.4 -2.2,3.1 -3.5,4.9 -3.2,-2.1 -6.5,-3.7 -9.9,-4.6 -1.3,-0.3 -2,1.5 -0.7,2 3.4,1.3 6.3,2.9 9,4.9 -1.3,1.8 -2.6,3.6 -3.7,5.2 -0.7,1 -1.4,1.9 -2.1,2.9 -0.1,-0.1 -0.3,-0.2 -0.4,-0.3 L 995.9,71 c -2.5,-1.7 -4.5,-3.1 -4.5,-3.2 0,-0.1 0,-2.7 0,-5.7 v -8.4 c 0.1,-0.1 0.1,-0.2 0.2,-0.3 l 13.5,-15.3 c 1.3,-2.7 0,-4.9 -3,-4.9 h -25.8 c -3,0 -4.4,2.2 -3,4.9 l 13.5,15.3 c 0.1,0.1 0.1,0.2 0.2,0.3 v 8.4 c 0,3 0,5.5 0,5.6 0,0.1 -2,1.6 -4.5,3.3 l -8.3,5.7 c -0.1,0.1 -0.2,0.2 -0.4,0.3 -0.8,-1 -1.5,-2 -2.2,-2.9 -1.1,-1.6 -2.4,-3.3 -3.7,-5.1 2.7,-2 5.7,-3.7 9.1,-5 1.1,-0.4 0.5,-2.3 -0.6,-2 -3.5,0.9 -6.9,2.6 -10.1,4.7 -1.3,-1.8 -2.5,-3.5 -3.5,-4.9 3.8,-2.2 7.9,-3.9 12.5,-4.8 1.4,-0.3 1,-2.2 -0.4,-2.1 -4.8,0.4 -9.5,2.1 -13.9,4.5 -0.8,-1.1 -1.6,-2.3 -2.3,-3.2 5.2,-2.3 10.5,-4.3 16.2,-6 1.6,-0.5 1.2,-3 -0.5,-2.6 -6,1.5 -11.9,3.4 -17.7,5.8 l -0.1,-0.1 c -0.5,-0.7 -1.3,-2.2 -1.7,-3.5 -0.5,-1.3 0.2,-7.6 1.1,-12 0.9,-4.4 1.6,-8.1 1.6,-8.3 0,-0.2 -2.7,3.4 -6.1,8.3 -3.4,4.9 -6.1,9.7 -6,10.6 0.1,0.9 -3.2,2.3 -7.7,1.2 -4.5,-1.1 -8.8,-2.5 -9.6,-3 -0.7,-0.5 -2.4,-7.2 -3.4,-13.4 L 922.6,20 c -1,-6.2 -1.8,-12.5 -1.8,-14 0.1,-1.5 1.7,-5.8 2.6,-7.4 0.8,-1.5 3.9,-7.3 6.9,-12.9 l 11,-20.5 c 3,-5.5 6.1,-10.8 7,-11.7 0.9,-0.9 3.4,-2.1 3.5,-2.1 0.1,0 5.2,-1.2 11.3,-2.6 l 11.3,-2.6 c 6.1,-1.4 12.5,-2.7 14.3,-2.8 1.8,-0.1 10.4,1.4 16.5,2.9 l 10.5,2.5 c 6.1,1.4 11.2,2.6 11.3,2.6 0.1,0 1.1,0.6 2.3,1.2 1.1,0.6 5.3,7.2 8.3,12.7 l 11,20.5 c 3,5.5 6.1,11.3 6.9,12.9 0.8,1.5 2.5,5.8 2.6,7.4 -0.4,1.4 -1.2,7.7 -2.3,13.8 z"
       class="st0" /><path
       style="fill:#094766"
       inkscape:connector-curvature="0"
       id="path3873"
       d="m 1073.1,-46.5 c 0,0.5 0,0.5 0,0.5 -0.2,0.4 -2.8,4.5 -6,9.2 -3.1,4.6 -14,12.6 -16.9,7.1 l -5,-9.4 c -3,-5.5 -5.5,-10.2 -5.5,-10.3 -0.1,-0.2 4.3,-2.7 10,-5.3 l 0.9,-0.4 c 5.7,-2.6 10.9,-4.7 11.5,-4.8 0.6,0 3.6,3 6.1,6.1 2.5,3.1 4.7,6.1 5,6.7 -0.1,0 -0.1,0 -0.1,0.6 z"
       class="st0" /></g><g
     transform="translate(3760.9337,300.5979)"
     id="g3875"
     style="fill:#eeeeee;fill-opacity:1"><path
       style="fill:#eeeeee;fill-opacity:1"
       inkscape:connector-curvature="0"
       id="path3877"
       d="m 976.4,-3.4 c -1.1,0 -4.7,0.1 -7.9,0.2 l -27.4,0.8 c -3.2,0.1 -3.3,0.5 -0.1,1 L 957.8,1 c 0,0.2 -0.1,0.4 -0.1,0.7 0,2.1 1.7,3.7 3.7,3.7 1.9,0 3.5,-1.5 3.7,-3.3 l 2.7,0.4 c 3.2,0.5 5.6,3.5 5.3,6.7 l -3.4,12 c -0.3,3.2 0.7,5.9 2.2,6.1 1.5,0.1 2.8,0.1 2.8,0 0,-0.1 0.1,-2.9 0.3,-6.1 l 2.8,-11.3 c 0.1,-3.2 0.3,-7.5 0.4,-9.5 0.2,-2.2 -0.7,-3.9 -1.8,-3.8 z"
       class="st1" /><path
       style="fill:#eeeeee;fill-opacity:1"
       inkscape:connector-curvature="0"
       id="path3879"
       d="m 1037,-2.4 -27.4,-0.8 c -3.2,-0.1 -6.8,-0.2 -7.9,-0.2 -1.1,0 -2,1.6 -1.9,3.6 0.1,2 0.3,6.3 0.4,9.5 L 1003,21 c 0.1,3.2 0.3,6 0.3,6.1 0,0.1 1.3,0.1 2.8,0 1.5,-0.1 2.5,-2.8 2.2,-6.1 l -3.4,-12 c -0.3,-3.2 2.1,-6.2 5.3,-6.7 l 2.7,-0.4 c 0.2,1.9 1.8,3.3 3.7,3.3 2.1,0 3.7,-1.7 3.7,-3.7 0,-0.2 0,-0.4 -0.1,-0.7 l 16.8,-2.4 c 3.2,-0.3 3.2,-0.8 0,-0.8 z"
       class="st1" /><path
       style="fill:#eeeeee;fill-opacity:1"
       inkscape:connector-curvature="0"
       id="path3881"
       d="m 953.7,-31.3 c 3.3,0 6,-3.4 6,-7.5 0,-4.2 -2.7,-7.5 -6,-7.5 -3.3,0 -6,3.4 -6,7.5 0,4.1 2.7,7.5 6,7.5 z"
       class="st1" /><path
       style="fill:#eeeeee;fill-opacity:1"
       inkscape:connector-curvature="0"
       id="path3883"
       d="m 946.6,-19.3 c 2.8,0 5,-2.2 5,-5 0,-2.8 -2.2,-5 -5,-5 -2.8,0 -5,2.2 -5,5 0,2.7 2.2,5 5,5 z"
       class="st1" /><path
       style="fill:#eeeeee;fill-opacity:1"
       inkscape:connector-curvature="0"
       id="path3885"
       d="m 969.8,-35.9 c 1.6,0.5 3.7,-1.7 4.7,-4.8 1,-3.2 0.5,-6.1 -1,-6.7 -1.6,-0.5 -3.7,1.7 -4.7,4.8 -1,3.2 -0.6,6.2 1,6.7 z"
       class="st1" /><path
       style="fill:#eeeeee;fill-opacity:1"
       inkscape:connector-curvature="0"
       id="path3887"
       d="m 963.4,-19.8 c 1.9,0 3.5,-1.3 3.5,-3 0,-1.7 -1.6,-3 -3.5,-3 -1.9,0 -3.5,1.3 -3.5,3 0,1.7 1.6,3 3.5,3 z"
       class="st1" /><path
       style="fill:#eeeeee;fill-opacity:1"
       inkscape:connector-curvature="0"
       id="path3889"
       d="m 1047.7,32.4 c -2.5,-1.2 -5.5,-0.2 -6.7,2.3 -1.2,2.5 -0.2,5.5 2.3,6.7 2.5,1.2 5.5,0.2 6.7,-2.2 1.2,-2.5 0.2,-5.5 -2.3,-6.8 z"
       class="st1" /><path
       style="fill:#eeeeee;fill-opacity:1"
       inkscape:connector-curvature="0"
       id="path3891"
       d="m 1044.2,28.3 c 1.6,0.3 3.4,-2.2 3.9,-5.5 0.5,-3.3 -0.4,-6.2 -2.1,-6.4 -1.6,-0.3 -3.4,2.2 -3.9,5.5 -0.4,3.2 0.5,6.1 2.1,6.4 z"
       class="st1" /><path
       style="fill:#eeeeee;fill-opacity:1"
       inkscape:connector-curvature="0"
       id="path3893"
       d="m 1037.4,28.4 c -1.7,-0.9 -3.8,-0.4 -4.5,1.1 -0.7,1.5 0.1,3.4 1.8,4.3 1.7,0.9 3.8,0.4 4.5,-1.1 0.8,-1.6 0,-3.5 -1.8,-4.3 z"
       class="st1" /></g><g
     transform="translate(3760.9337,300.5979)"
     id="g3895"
     style="fill:#eeeeee;fill-opacity:1;filter:url(#filter1602)"
     inkscape:export-filename="/home/yunusem/HDD/vagrant-jessie64/desktop-base/kde-wallpaper/blue/contents/images/1920x1080.png"
     inkscape:export-xdpi="96"
     inkscape:export-ydpi="96"><path
       style="fill:#eeeeee;fill-opacity:1"
       inkscape:connector-curvature="0"
       id="path3897"
       d="m 896.9,184.2 c 0,4.1 -1.4,7.6 -4.3,10.5 -2.9,2.9 -6.4,4.3 -10.5,4.3 h -3 c -2,0 -3,1 -3,3 v 11.9 c 0,1.7 -0.6,3.1 -1.7,4.2 -1.1,1.1 -2.5,1.7 -4.2,1.7 h -3 c -1.7,0 -3.1,-0.6 -4.2,-1.7 -1.1,-1.2 -1.7,-2.6 -1.7,-4.2 v -68.4 c 0,-4.1 1.4,-7.6 4.4,-10.5 2.9,-2.9 6.4,-4.3 10.6,-4.3 h 6 c 4.1,0 7.6,1.4 10.5,4.3 2.9,2.9 4.3,6.4 4.3,10.5 v 38.7 z M 882,181.1 v -32.7 c 0,-2 -1,-3 -3,-3 -2,0 -3,1 -3,3 v 32.7 c 0,2 1,3 3,3 2,0 3,-1 3,-3 z"
       class="st1" /><path
       style="fill:#eeeeee;fill-opacity:1"
       inkscape:connector-curvature="0"
       id="path3899"
       d="m 940.9,205 c 0,4.1 -1.4,7.6 -4.3,10.5 -2.9,2.9 -6.4,4.3 -10.5,4.3 H 920 c -4.1,0 -7.6,-1.4 -10.5,-4.3 -2.9,-2.9 -4.3,-6.4 -4.3,-10.5 v -5.9 c 0,-4.1 1.4,-7.6 4.3,-10.5 2.9,-2.9 6.4,-4.3 10.5,-4.3 h 3 c 2,0 3,-1 3,-3 v -32.9 c 0,-2 -1,-3 -3,-3 -2,0 -3,1 -3,3 v 23.8 c 0,1.7 -0.6,3.1 -1.7,4.2 -1.2,1.2 -2.6,1.7 -4.2,1.7 h -3 c -1.7,0 -3.1,-0.6 -4.2,-1.7 -1.2,-1.1 -1.7,-2.6 -1.7,-4.2 v -26.7 c 0,-4.1 1.4,-7.6 4.3,-10.5 2.9,-2.9 6.4,-4.3 10.5,-4.3 h 6.1 c 4.1,0 7.6,1.5 10.5,4.3 2.9,2.9 4.3,6.4 4.3,10.5 z M 926,201.9 c 0,-2 -1,-3 -3,-3 -2,0 -3,1 -3,3 0,2 1,3 3,3 2,0 3,-1 3,-3 z"
       class="st1" /><path
       style="fill:#eeeeee;fill-opacity:1"
       inkscape:connector-curvature="0"
       id="path3901"
       d="m 984.9,172.2 c 0,1.7 -0.6,3.1 -1.7,4.2 -1.1,1.2 -2.5,1.7 -4.2,1.7 h -3 c -1.7,0 -3.1,-0.6 -4.2,-1.7 -1.1,-1.2 -1.7,-2.6 -1.7,-4.2 v -23.8 c 0,-2 -1,-3 -3,-3 -2,0 -3,1 -3,3 v 65.5 c 0,1.7 -0.6,3.1 -1.7,4.2 -1.1,1.2 -2.5,1.7 -4.2,1.7 h -3 c -1.7,0 -3.1,-0.6 -4.2,-1.7 -1.1,-1.1 -1.7,-2.6 -1.7,-4.2 v -68.4 c 0,-4.1 1.4,-7.6 4.3,-10.5 2.9,-2.9 6.4,-4.3 10.5,-4.3 h 5.9 c 4.1,0 7.6,1.4 10.5,4.3 2.9,2.9 4.3,6.4 4.3,10.5 v 26.7 z"
       class="st1" /><path
       style="fill:#eeeeee;fill-opacity:1"
       inkscape:connector-curvature="0"
       id="path3903"
       d="m 1028.9,205 c 0,4.1 -1.4,7.6 -4.3,10.5 -2.9,2.9 -6.4,4.3 -10.5,4.3 h -14.9 c -1.7,0 -3.1,-0.6 -4.2,-1.7 -1.2,-1.1 -1.7,-2.6 -1.7,-4.2 v -77.4 c 0,-1.7 0.6,-3.1 1.7,-4.2 1.2,-1.1 2.6,-1.7 4.2,-1.7 h 14.9 c 4.1,0 7.6,1.4 10.5,4.3 2.9,2.9 4.3,6.4 4.3,10.5 z m -14.9,-3.1 v -53.5 c 0,-2 -1,-3 -3,-3 -2,0 -3,1 -3,3 v 53.5 c 0,2 1,3 3,3 2,0 3,-1 3,-3 z"
       class="st1" /><path
       style="fill:#eeeeee;fill-opacity:1"
       inkscape:connector-curvature="0"
       id="path3905"
       d="m 1072.8,205 c 0,4.1 -1.4,7.6 -4.3,10.5 -2.9,2.9 -6.4,4.3 -10.5,4.3 h -6.1 c -4.1,0 -7.6,-1.4 -10.5,-4.3 -2.9,-2.9 -4.3,-6.4 -4.3,-10.5 v -68.5 c 0,-1.7 0.6,-3.1 1.7,-4.2 1.1,-1.2 2.6,-1.7 4.2,-1.7 h 3 c 1.7,0 3.1,0.6 4.2,1.7 1.2,1.2 1.7,2.6 1.7,4.2 v 65.4 c 0,2 1,3 3,3 2,0 3,-1 3,-3 v -65.4 c 0,-1.7 0.6,-3.1 1.7,-4.2 1.2,-1.1 2.6,-1.7 4.2,-1.7 h 3 c 1.7,0 3.1,0.6 4.2,1.7 1.2,1.2 1.7,2.6 1.7,4.2 z"
       class="st1" /><path
       style="fill:#eeeeee;fill-opacity:1"
       inkscape:connector-curvature="0"
       id="path3907"
       d="m 1116.8,205 c 0,4.1 -1.4,7.6 -4.3,10.5 -2.9,2.9 -6.4,4.3 -10.5,4.3 h -14.9 c -1.7,0 -3.1,-0.6 -4.2,-1.7 -1.2,-1.1 -1.7,-2.6 -1.7,-4.2 v -3 c 0,-1.7 0.6,-3.1 1.7,-4.2 1.1,-1.1 2.6,-1.7 4.2,-1.7 h 11.9 c 2,0 3,-1 3,-2.9 0,-2 -1,-2.9 -3,-2.9 h -3 c -4.1,0 -7.6,-1.4 -10.5,-4.3 -2.9,-2.9 -4.3,-6.4 -4.3,-10.5 v -38.9 c 0,-4.1 1.4,-7.6 4.3,-10.5 2.9,-2.9 6.4,-4.3 10.5,-4.3 h 6.1 c 4.1,0 7.6,1.4 10.5,4.3 2.9,2.9 4.3,6.4 4.3,10.5 v 26.8 c 0,1.7 -0.6,3.1 -1.7,4.2 -1.2,1.2 -2.6,1.7 -4.2,1.7 h -3 c -1.7,0 -3.1,-0.6 -4.2,-1.7 -1.2,-1.1 -1.7,-2.6 -1.7,-4.2 v -23.8 c 0,-2 -1,-3 -3,-3 -2,0 -3,1 -3,3 v 32.7 c 0,2 1,3 3,3 h 3 c 4.1,0 7.6,1.5 10.5,4.4 2.9,2.9 4.3,6.4 4.3,10.6 z"
       class="st1" /></g><g
     transform="translate(3760.9337,300.5979)"
     id="g3909"><g
       id="g3911"><path
         style="fill:#094766"
         inkscape:connector-curvature="0"
         id="path3913"
         d="m 827.2,210.7 c -1,1.2 1,0.8 2.8,0.4 l 0.2,-2.4 z"
         class="st0" /><path
         style="fill:#094766"
         inkscape:connector-curvature="0"
         id="path3915"
         d="m 834.5,206.9 2.4,-3.8 -2,2.4 c -3.3,0.9 -0.7,-2 0.1,-3 -4.3,3.2 -0.4,3 -0.5,4.4 z"
         class="st0" /><path
         style="fill:#094766"
         inkscape:connector-curvature="0"
         id="path3917"
         d="m 840.5,201.3 c 2.3,-1.2 1,-2 -0.1,-1.7 0.1,0.6 -1,2 0.1,1.7 z"
         class="st0" /><path
         style="fill:#094766"
         inkscape:connector-curvature="0"
         id="path3919"
         d="m 988.2,133.8 c -0.8,0.1 -1.6,0.2 -1.7,-0.1 -0.6,0.6 -0.6,1 1.7,0.1 z"
         class="st0" /><path
         style="fill:#094766"
         inkscape:connector-curvature="0"
         id="path3921"
         d="m 986.5,133.6 0.4,-0.4 c -0.1,0.1 -0.2,0.1 -0.4,0.4 0,0 0,0 0,0 z"
         class="st0" /><path
         style="fill:#094766"
         inkscape:connector-curvature="0"
         id="path3923"
         d="m 931.8,141.3 c -2.3,2.1 -4,2.3 -6.4,3.9 l -2.1,-0.8 c -2.5,1.8 -0.6,1.8 -2.2,3.5 -2.9,0.3 -7.8,3.7 -9,4.2 -1.1,-0.3 0.6,-1.4 0.8,-2 -3,2.1 -2.1,3.3 -6,5.3 l -0.3,-0.4 c -8.5,6.7 -20.7,12.2 -30.4,19 0.7,-0.3 0.7,0.1 1.1,0.2 -10.7,6.3 -23.2,13.4 -29.7,21.6 5.6,-3.7 16.6,-7.1 21.2,-12.8 2.7,-0.2 5.4,-3.5 7.1,-2.6 8.9,-3.9 11.1,-8.3 19.4,-12.6 1.3,-0.3 1.1,0.7 1.8,1.2 l -6.2,4 4.3,-1.5 c -1.4,1.5 -5.9,3.2 -5.7,4.8 4.9,-4.5 14.8,-7.9 18.9,-12.2 -2.5,0.9 -5.3,2.7 -8.2,4 -1.5,0.2 -3.5,0.8 -3.8,0 7,-6.1 14.2,-8.4 22.2,-13 2,-1.2 4.9,-2.4 5.6,-1.9 -1.2,0.9 0.1,1 -0.9,1.8 2.7,-2 -0.9,-2.6 3.5,-4.4 l 0.6,2.7 c 0.5,-3.3 5.4,-2.1 7.8,-5 1.5,0.4 -0.2,1.9 -2.5,3.1 2.8,-0.8 2.4,-2.4 4.6,-3.3 l -1,3 c 1.3,-3 4.2,-1.5 5.8,-1.5 -0.1,-0.6 -2,-1.6 0.9,-2.8 1.3,-0.3 1,0.5 1.4,0.7 -0.1,-0.6 0.5,-2 2.3,-2.9 0.7,0.5 -0.8,1.6 -0.5,2.4 1.4,-0.7 2.5,-1.4 3.8,-1.3 2.2,-1.7 -0.6,-0.9 0.6,-2.4 4.1,-1.2 1.4,2.2 3.5,3.1 -2.5,2.3 -5.9,4.3 -7.2,5.6 l 5.2,-3.1 c 0,1 4.4,-0.3 1.8,1.8 5.9,-1.7 12.3,-5.6 17.3,-8.7 -0.9,0.1 -1.9,0.3 -2,-0.3 2.5,-1.7 2.7,-0.6 3.5,-0.2 1.8,-1.5 0.9,-2.8 1.7,-4.4 4.7,-0.7 5,-1.7 9.3,-1.6 l -0.9,-1.3 c 3,0 2.5,-2.3 5.6,-2.7 0.3,0.2 -0.6,1.1 -1.3,1.8 2.2,-1.6 2.8,0.2 4.9,-1.4 l -1.2,2.4 c 1.9,-0.9 4.4,-2.6 4,-0.9 2.6,-3.1 8.6,-5 12.3,-7.8 l 0.3,1.3 c 1.5,-2.4 7.8,-3.4 8.9,-5.9 l 0.5,0.4 3.5,-3.5 c 2,-0.7 2.1,1.4 2.1,0.9 4.1,-2.1 7.3,-3.6 10.3,-4.1 0,-1.9 4.3,-4.2 7.8,-5.8 17.5,-5.9 35.6,-13.9 51.7,-20.4 2.5,-0.7 5.4,-3.5 8.4,-5.1 -3.9,0.6 -4.1,1.5 -7.8,2.5 -2.9,0.3 -4.5,-1.2 -7.2,-1.6 l 1.6,1.1 c -3.5,2.3 -2.9,0 -5.5,2.3 l -0.6,-2.4 c -0.7,1.5 -3.7,1.4 -5,1.1 l -0.5,1.9 c -2.7,-0.1 -4.4,0 -5.6,-1.2 l 0.7,1.4 c -1.2,-0.6 -9.1,3.3 -7.1,-0.2 -0.6,0.6 -1,1.5 -2.5,1.9 l -0.7,-1.4 c -2.1,1.1 -4.4,2.3 -5.3,1.7 1.1,-0.8 1.2,-1.5 1.4,-2.3 -9.3,3.1 -0.3,5.4 -8.3,8.5 l -0.3,-1 -1.7,1.8 -2.6,-0.4 c -1.7,4.3 -11.4,4.1 -15.5,7.8 -1.8,1.1 -5,0.2 -8.5,1.9 l 0.8,1.3 c -3.5,-0.2 -14.5,3.5 -18.6,1.5 -2.2,2.3 0.4,0.2 0.8,1.3 -4.6,3.8 -5.9,1.8 -9,2.2 -2.9,2.1 2.7,-0.6 1.4,1.3 -5.4,1.1 -3.2,3.5 -9.7,5.3 -1,-0.5 1.3,-1.3 1.7,-2.1 -3.6,3.3 -11.9,6.1 -18.1,9.2 -8.4,2.8 -17.6,5.9 -27.8,9.4 l 0.1,0.6 c -4.1,0.3 -7.3,3.4 -11.7,4.7 z"
         class="st0" /><path
         style="fill:#094766"
         inkscape:connector-curvature="0"
         id="path3925"
         d="m 888.5,178.9 1.3,0.8 3.4,-2.7 c -2.1,-0.2 -2.5,1 -4.7,1.9 z"
         class="st0" /><polygon
         style="fill:#094766"
         id="polygon3927"
         points="888.9,174.7 887.4,174.9 885.7,176.5 "
         class="st0" /><polygon
         style="fill:#094766"
         id="polygon3929"
         points="929.2,157.4 936.7,152.9 936.1,152.9 "
         class="st0" /><path
         style="fill:#094766"
         inkscape:connector-curvature="0"
         id="path3931"
         d="m 988.5,135.1 c -0.6,1 -1.9,1.3 -2.6,2.1 l 3.2,-2.2 z"
         class="st0" /><path
         style="fill:#094766"
         inkscape:connector-curvature="0"
         id="path3933"
         d="m 1023.9,125.2 c 0.4,-2.7 2.6,-1.1 0,-2.3 -1.9,1.2 0.3,1.3 0,2.3 z"
         class="st0" /><path
         style="fill:#094766"
         inkscape:connector-curvature="0"
         id="path3935"
         d="m 1030.2,118.7 c -1.2,0.4 -1.7,1 -2.3,1.6 2.1,0.4 1.7,-0.8 2.3,-1.6 z"
         class="st0" /></g><g
       id="g3937"><path
         style="fill:#094766"
         inkscape:connector-curvature="0"
         id="path3939"
         d="m 844.2,242.3 c -1,1.2 1,0.8 2.8,0.4 l 0.3,-2.4 z"
         class="st0" /><path
         style="fill:#094766"
         inkscape:connector-curvature="0"
         id="path3941"
         d="m 851.7,238.3 2.6,-3.9 -2.1,2.4 c -3.4,0.9 -0.7,-2 0.2,-3 -4.6,3.3 -0.5,3 -0.7,4.5 z"
         class="st0" /><path
         style="fill:#094766"
         inkscape:connector-curvature="0"
         id="path3943"
         d="m 858,232.5 c 2.4,-1.3 1.1,-2 -0.1,-1.8 0.2,0.6 -1.1,2.1 0.1,1.8 z"
         class="st0" /><path
         style="fill:#094766"
         inkscape:connector-curvature="0"
         id="path3945"
         d="m 1011.6,159.9 c -0.8,0 -1.7,0.2 -1.7,-0.2 -0.7,0.7 -0.7,1 1.7,0.2 z"
         class="st0" /><path
         style="fill:#094766"
         inkscape:connector-curvature="0"
         id="path3947"
         d="m 1009.9,159.7 0.4,-0.4 c -0.1,0.1 -0.2,0.1 -0.4,0.4 -0.1,-0.1 0,0 0,0 z"
         class="st0" /><path
         style="fill:#094766"
         inkscape:connector-curvature="0"
         id="path3949"
         d="m 952.9,168.2 c -2.4,2.2 -4.2,2.5 -6.7,4.1 l -2.2,-0.7 c -2.6,1.9 -0.7,1.8 -2.4,3.6 -3.1,0.4 -8.1,4.1 -9.4,4.6 -1.2,-0.2 0.6,-1.5 0.8,-2.1 -3.1,2.2 -2.2,3.4 -6.3,5.6 l -0.3,-0.4 c -8.8,7.2 -21.4,13.3 -31.4,20.6 0.8,-0.3 0.8,0.1 1.2,0.2 -11,6.8 -24,14.5 -30.8,23 5.8,-4 17.2,-7.8 22,-13.8 2.9,-0.3 5.5,-3.8 7.3,-2.9 9.2,-4.3 11.4,-8.9 20,-13.6 1.4,-0.4 1.1,0.6 1.9,1.1 l -6.5,4.3 4.5,-1.7 c -1.5,1.6 -6.1,3.5 -5.9,5.1 5.1,-4.8 15.3,-8.6 19.5,-13.2 -2.6,1 -5.5,3 -8.4,4.4 -1.5,0.2 -3.7,1 -3.9,0.2 7.2,-6.4 14.7,-9.1 23,-14.1 2.1,-1.3 5.1,-2.7 5.8,-2.2 -1.3,1 0.1,1 -0.9,1.9 2.8,-2.1 -0.9,-2.7 3.7,-4.6 l 0.6,2.7 c 0.5,-3.4 5.7,-2.2 8.1,-5.2 1.6,0.4 -0.2,2 -2.6,3.2 3,-0.9 2.5,-2.4 4.8,-3.5 l -1.1,3.1 c 1.4,-3.1 4.4,-1.7 6,-1.7 -0.1,-0.6 -2.1,-1.5 0.9,-2.8 1.4,-0.3 1,0.5 1.4,0.6 -0.1,-0.6 0.6,-2 2.5,-3 0.7,0.5 -0.8,1.6 -0.6,2.4 1.5,-0.7 2.6,-1.4 3.9,-1.4 2.4,-1.8 -0.6,-0.9 0.6,-2.4 4.3,-1.4 1.5,2.2 3.7,3 -2.6,2.4 -6.3,4.5 -7.7,5.8 l 5.5,-3.2 c 0,1 4.5,-0.4 1.9,1.8 6.1,-2 12.6,-6 17.9,-9.1 -0.9,0.1 -2,0.3 -2.1,-0.2 2.7,-1.7 2.8,-0.6 3.6,-0.3 1.9,-1.5 1,-2.8 1.9,-4.4 4.9,-0.8 5.2,-1.8 9.7,-1.6 l -0.8,-1.3 c 3.2,0 2.7,-2.3 5.9,-2.6 0.3,0.2 -0.7,1.1 -1.4,1.8 2.4,-1.5 2.9,0.2 5.1,-1.4 l -1.3,2.4 c 2,-0.9 4.7,-2.6 4.2,-0.8 2.8,-3.1 9.2,-4.8 13.2,-7.4 l 0.2,1.3 c 1.7,-2.4 8.3,-3.2 9.6,-5.7 l 0.5,0.4 3.9,-3.3 c 2.1,-0.6 2.1,1.5 2.1,1 4.4,-2 7.9,-3.4 11,-3.7 0.1,-1.9 4.8,-4 8.5,-5.5 18.7,-5.1 38.1,-12.5 55.3,-18.7 2.6,-0.7 5.8,-3.5 8.8,-5.2 -4.1,0.6 -4.3,1.5 -8.3,2.5 -3.1,0.3 -4.6,-1.2 -7.4,-1.7 l 1.7,1.1 c -3.7,2.2 -3,-0.1 -5.8,2.2 l -0.4,-2.4 c -0.8,1.5 -3.9,1.3 -5.2,1 l -0.6,1.9 c -2.8,-0.2 -4.5,-0.1 -5.7,-1.4 l 0.7,1.4 c -1.2,-0.7 -9.7,2.9 -7.4,-0.5 -0.6,0.5 -1.1,1.5 -2.7,1.8 l -0.7,-1.4 c -2.2,1.1 -4.7,2.2 -5.6,1.5 1.1,-0.7 1.4,-1.5 1.6,-2.3 -9.9,2.7 -0.6,5.4 -9.2,8.2 l -0.2,-1 -1.7,1.9 -2.7,-0.5 c -2,4.2 -12.1,3.7 -16.7,7.1 -1.9,1 -5.2,0 -9,1.6 l 0.8,1.4 c -3.6,-0.4 -15.4,2.9 -19.5,0.8 -2.5,2.2 0.4,0.2 0.8,1.3 -5.1,3.7 -6.3,1.6 -9.6,1.9 -3.2,2.1 2.9,-0.5 1.4,1.3 -5.7,1 -3.6,3.4 -10.5,5.2 -1,-0.5 1.4,-1.2 1.9,-2.1 -4,3.4 -12.9,5.9 -19.5,9.2 -8.2,2.3 -19.6,7.1 -29.1,10 l 0.1,0.6 c -4.3,0.4 -7.7,3.6 -12.3,5.1 z"
         class="st0" /><path
         style="fill:#094766"
         inkscape:connector-curvature="0"
         id="path3951"
         d="m 907.8,207.9 1.3,0.8 3.5,-2.9 c -2.1,-0.1 -2.5,1.1 -4.8,2.1 z"
         class="st0" /><polygon
         style="fill:#094766"
         id="polygon3953"
         points="908.2,203.7 906.7,204 905,205.6 "
         class="st0" /><polygon
         style="fill:#094766"
         id="polygon3955"
         points="950.1,184.5 957.8,179.7 957.2,179.8 "
         class="st0" /><path
         style="fill:#094766"
         inkscape:connector-curvature="0"
         id="path3957"
         d="m 1011.8,161.2 c -0.6,1 -2,1.3 -2.8,2.1 l 3.4,-2.1 z"
         class="st0" /><path
         style="fill:#094766"
         inkscape:connector-curvature="0"
         id="path3959"
         d="m 1049.1,152.4 c 0.6,-2.7 2.8,-1 0.2,-2.3 -2.1,1.1 0.2,1.3 -0.2,2.3 z"
         class="st0" /><path
         style="fill:#094766"
         inkscape:connector-curvature="0"
         id="path3961"
         d="m 1056.2,146.2 c -1.3,0.4 -1.9,1 -2.5,1.6 2.1,0.3 1.7,-0.9 2.5,-1.6 z"
         class="st0" /></g><g
       id="g3963"><path
         style="fill:#094766"
         inkscape:connector-curvature="0"
         id="path3965"
         d="m 877.1,266.7 c -0.7,1.2 1.1,0.6 2.7,0.2 l -0.1,-2.4 z"
         class="st0" /><path
         style="fill:#094766"
         inkscape:connector-curvature="0"
         id="path3967"
         d="m 883.2,262.5 1.9,-3.8 -1.7,2.4 c -3,1.1 -1,-1.9 -0.2,-2.9 -3.6,3.3 0,2.9 0,4.3 z"
         class="st0" /><path
         style="fill:#094766"
         inkscape:connector-curvature="0"
         id="path3969"
         d="m 888.5,256.8 c 2.1,-1.3 0.8,-2 -0.3,-1.7 0,0.6 -0.8,2 0.3,1.7 z"
         class="st0" /><path
         style="fill:#094766"
         inkscape:connector-curvature="0"
         id="path3971"
         d="m 1026.8,195.2 c -0.7,0 -1.5,0.2 -1.6,-0.2 -0.6,0.6 -0.6,1 1.6,0.2 z"
         class="st0" /><path
         style="fill:#094766"
         inkscape:connector-curvature="0"
         id="path3973"
         d="m 1025.2,195 0.4,-0.4 c -0.1,0.1 -0.2,0.1 -0.4,0.4 -0.1,-0.1 0,0 0,0 z"
         class="st0" /><path
         style="fill:#094766"
         inkscape:connector-curvature="0"
         id="path3975"
         d="m 974.2,201.8 c -2.1,2 -3.7,2.1 -5.9,3.5 l -2,-0.9 c -2.3,1.6 -0.6,1.7 -2.1,3.3 -2.7,0.1 -7.3,3.1 -8.5,3.6 -1.1,-0.3 0.6,-1.4 0.7,-1.9 -2.8,1.8 -2,3.1 -5.7,4.8 l -0.2,-0.4 c -8.1,6 -19.8,10.6 -29.1,16.8 0.7,-0.3 0.7,0.1 1.1,0.3 -10.2,5.6 -22.1,12.3 -27.8,20.5 5.1,-3.8 15.4,-6.8 19.8,-12.2 2.6,-0.1 5.1,-3.2 6.7,-2.2 8.4,-3.4 10.5,-7.5 18.5,-11.2 1.3,-0.3 1,0.7 1.7,1.3 l -6,3.6 4.1,-1.2 c -1.4,1.4 -5.6,2.8 -5.4,4.3 4.7,-4.1 14,-6.8 18,-10.8 -2.4,0.7 -5,2.3 -7.8,3.4 -1.4,0.1 -3.4,0.5 -3.6,-0.2 6.7,-5.5 13.5,-7.3 21.1,-11.4 1.9,-1 4.6,-2.1 5.2,-1.5 -1.2,0.8 0,1 -0.9,1.8 2.5,-1.8 -0.8,-2.6 3.3,-4.1 l 0.6,2.7 c 0.5,-3.3 5.1,-1.7 7.3,-4.5 1.5,0.5 -0.2,1.9 -2.3,3 2.7,-0.7 2.3,-2.2 4.3,-3.1 l -0.9,2.9 c 1.2,-2.9 4,-1.3 5.5,-1.2 -0.1,-0.6 -1.9,-1.6 0.8,-2.7 1.3,-0.3 0.9,0.5 1.3,0.7 -0.1,-0.6 0.4,-1.9 2.1,-2.8 0.7,0.5 -0.7,1.6 -0.4,2.3 1.3,-0.7 2.3,-1.3 3.5,-1.2 2,-1.7 -0.6,-0.9 0.4,-2.3 3.8,-1.2 1.5,2.2 3.5,3 -2.2,2.3 -5.5,4.2 -6.7,5.5 l 4.9,-3 c 0.1,1 4.1,-0.3 1.8,1.8 5.5,-1.7 11.2,-5.7 15.7,-8.7 -0.8,0.1 -1.8,0.3 -1.9,-0.3 2.3,-1.7 2.5,-0.5 3.3,-0.2 1.6,-1.4 0.7,-2.7 1.4,-4.3 4.4,-0.7 4.6,-1.6 8.7,-1.4 l -0.8,-1.3 c 2.9,0 2.2,-2.2 5.2,-2.6 0.3,0.2 -0.5,1 -1.2,1.7 2,-1.5 2.6,0.2 4.6,-1.3 l -1,2.3 c 1.7,-0.8 4.1,-2.5 3.8,-0.7 2.3,-3 8,-4.7 11.4,-7.3 l 0.3,1.3 c 1.3,-2.3 7.3,-3.1 8.3,-5.6 l 0.5,0.4 3.2,-3.4 c 1.9,-0.6 2,1.5 2,0.9 3.8,-2 6.8,-3.5 9.7,-3.9 -0.1,-1.9 3.9,-4.1 7.1,-5.8 16.3,-5.9 32.7,-15 46.3,-23.9 2.1,-1.1 4.2,-4.4 6.6,-6.5 -3.5,1.2 -3.4,2.2 -6.7,3.8 -2.6,0.8 -4.4,-0.5 -6.9,-0.5 l 1.7,0.8 c -2.8,2.7 -2.6,0.4 -4.6,3 l -0.9,-2.2 c -0.4,1.6 -3.1,1.7 -4.4,1.6 l -0.2,1.9 c -2.5,0.1 -4,0.4 -5.3,-0.7 l 0.8,1.3 c -1.2,-0.5 -8,3.8 -6.6,0.3 -0.5,0.6 -0.7,1.6 -2.1,2 l -0.8,-1.3 c -1.8,1.2 -3.8,2.4 -4.7,1.9 0.9,-0.8 1,-1.6 1,-2.3 -8.3,3.4 0.3,5.4 -6.9,8.7 l -0.3,-0.9 -1.4,1.8 -2.4,-0.3 c -1.3,4.2 -10.3,4.2 -14,7.7 -1.6,1 -4.7,0.1 -7.9,1.8 l 0.8,1.3 c -3.3,-0.3 -13.6,3.1 -17.5,1 -2,2.2 0.4,0.2 0.8,1.3 -4.2,3.6 -5.6,1.5 -8.5,1.9 -2.7,2 2.5,-0.5 1.4,1.3 -5.1,1 -3,3.4 -9.1,5 -0.9,-0.5 1.2,-1.2 1.6,-2 -3.4,3.2 -11.2,5.7 -17,8.8 -7.3,2.2 -17.4,6.8 -25.6,9.2 l 0.1,0.6 c -3.7,0.2 -6.6,3 -10.7,4.1 z"
         class="st0" /><path
         style="fill:#094766"
         inkscape:connector-curvature="0"
         id="path3977"
         d="m 933.1,236.1 1.2,0.9 3.2,-2.5 c -1.9,-0.3 -2.3,0.9 -4.4,1.6 z"
         class="st0" /><polygon
         style="fill:#094766"
         id="polygon3979"
         points="933.6,232 932.2,232.1 930.6,233.6 "
         class="st0" /><polygon
         style="fill:#094766"
         id="polygon3981"
         points="971.9,217.6 979,213.4 978.4,213.4 "
         class="st0" /><path
         style="fill:#094766"
         inkscape:connector-curvature="0"
         id="path3983"
         d="m 1027.1,196.5 c -0.5,1 -1.7,1.2 -2.4,2 l 2.9,-2 z"
         class="st0" /><path
         style="fill:#094766"
         inkscape:connector-curvature="0"
         id="path3985"
         d="m 1060.2,187.6 c 0.3,-2.7 2.5,-1 0,-2.3 -1.7,1.2 0.3,1.4 0,2.3 z"
         class="st0" /><path
         style="fill:#094766"
         inkscape:connector-curvature="0"
         id="path3987"
         d="m 1066.2,181.3 c -1.1,0.4 -1.6,1 -2.1,1.6 1.9,0.3 1.4,-0.8 2.1,-1.6 z"
         class="st0" /></g></g></svg>