<?xml version="1.0" encoding="UTF-8" standalone="no"?>
<!-- Created with Inkscape (http://www.inkscape.org/) -->

<svg
   xmlns:dc="http://purl.org/dc/elements/1.1/"
   xmlns:cc="http://creativecommons.org/ns#"
   xmlns:rdf="http://www.w3.org/1999/02/22-rdf-syntax-ns#"
   xmlns:svg="http://www.w3.org/2000/svg"
   xmlns="http://www.w3.org/2000/svg"
   xmlns:sodipodi="http://sodipodi.sourceforge.net/DTD/sodipodi-0.dtd"
   xmlns:inkscape="http://www.inkscape.org/namespaces/inkscape"
   width="960"
   height="540"
   id="svg6370"
   version="1.1"
   inkscape:version="0.92.1 r15371"
   viewBox="0 0 959.9999 540"
   sodipodi:docname="login_logo_cropped.svg">
  <defs
     id="defs6372">
    <radialGradient
       id="SVGID_2_"
       cx="2146.8174"
       cy="478.19849"
       r="6.7435002"
       gradientTransform="matrix(1.0725,0,0,-0.9931,-583.3926,1412.5)"
       gradientUnits="userSpaceOnUse">
      <stop
         offset="0"
         style="stop-color:#FFF1E9"
         id="stop3002" />
      <stop
         offset="1"
         style="stop-color:#FFFFFF;stop-opacity:0.2"
         id="stop3004" />
    </radialGradient>
    <radialGradient
       id="SVGID_3_"
       cx="2176.1582"
       cy="498.5618"
       r="7.6339998"
       gradientTransform="matrix(1.0725,0,0,-0.9931,-583.3926,1412.5)"
       gradientUnits="userSpaceOnUse">
      <stop
         offset="0"
         style="stop-color:#FFF1E9"
         id="stop3009" />
      <stop
         offset="1"
         style="stop-color:#FFFFFF;stop-opacity:0.2"
         id="stop3011" />
    </radialGradient>
    <radialGradient
       id="SVGID_4_"
       cx="2185.4512"
       cy="528.25659"
       r="3.7077"
       gradientTransform="matrix(1.0725,0,0,-0.9931,-583.3926,1412.5)"
       gradientUnits="userSpaceOnUse">
      <stop
         offset="0"
         style="stop-color:#FFF1E9"
         id="stop3016" />
      <stop
         offset="1"
         style="stop-color:#FFFFFF;stop-opacity:0.2"
         id="stop3018" />
    </radialGradient>
    <radialGradient
       id="SVGID_5_"
       cx="2120.5449"
       cy="693.31232"
       r="3.3676"
       gradientTransform="matrix(1.0725,0,0,-0.9931,-583.3926,1412.5)"
       gradientUnits="userSpaceOnUse">
      <stop
         offset="0"
         style="stop-color:#FFF1E9"
         id="stop3023" />
      <stop
         offset="1"
         style="stop-color:#FFFFFF;stop-opacity:0.2"
         id="stop3025" />
    </radialGradient>
    <radialGradient
       id="SVGID_6_"
       cx="2121.502"
       cy="692.0271"
       r="0.86989999"
       gradientTransform="matrix(1.0725,0,0,-0.9931,-583.3926,1412.5)"
       gradientUnits="userSpaceOnUse">
      <stop
         offset="0"
         style="stop-color:#FFF1E9"
         id="stop3030" />
      <stop
         offset="1"
         style="stop-color:#FFFFFF;stop-opacity:0.2"
         id="stop3032" />
    </radialGradient>
    <radialGradient
       id="SVGID_7_"
       cx="2110.9863"
       cy="490.52371"
       r="181.8613"
       gradientTransform="matrix(1.0725,0,0,-0.9931,-583.3926,1412.5)"
       gradientUnits="userSpaceOnUse">
      <stop
         offset="0"
         style="stop-color:#FFF1E9"
         id="stop3037" />
      <stop
         offset="1"
         style="stop-color:#FFFFFF;stop-opacity:0.2"
         id="stop3039" />
    </radialGradient>
    <radialGradient
       id="SVGID_8_"
       cx="2075.959"
       cy="459.5647"
       r="9.1426001"
       gradientTransform="matrix(1.0725,0,0,-0.9931,-583.3926,1412.5)"
       gradientUnits="userSpaceOnUse">
      <stop
         offset="0"
         style="stop-color:#FFF1E9"
         id="stop3044" />
      <stop
         offset="1"
         style="stop-color:#FFFFFF;stop-opacity:0.2"
         id="stop3046" />
    </radialGradient>
    <radialGradient
       id="SVGID_9_"
       cx="2078.8184"
       cy="472.58179"
       r="5.9285998"
       gradientTransform="matrix(1.0725,0,0,-0.9931,-583.3926,1412.5)"
       gradientUnits="userSpaceOnUse">
      <stop
         offset="0"
         style="stop-color:#FFF1E9"
         id="stop3051" />
      <stop
         offset="1"
         style="stop-color:#FFFFFF;stop-opacity:0.2"
         id="stop3053" />
    </radialGradient>
    <radialGradient
       id="SVGID_10_"
       cx="2249.8457"
       cy="491.91821"
       r="15.0487"
       gradientTransform="matrix(1.0725,0,0,-0.9931,-583.3926,1412.5)"
       gradientUnits="userSpaceOnUse">
      <stop
         offset="0"
         style="stop-color:#FFF1E9"
         id="stop3058" />
      <stop
         offset="1"
         style="stop-color:#FFFFFF;stop-opacity:0.2"
         id="stop3060" />
    </radialGradient>
    <radialGradient
       id="SVGID_11_"
       cx="2123.4619"
       cy="698.66382"
       r="6.3271999"
       gradientTransform="matrix(1.0725,0,0,-0.9931,-583.3926,1412.5)"
       gradientUnits="userSpaceOnUse">
      <stop
         offset="0"
         style="stop-color:#FFF1E9"
         id="stop3065" />
      <stop
         offset="1"
         style="stop-color:#FFFFFF;stop-opacity:0.2"
         id="stop3067" />
    </radialGradient>
    <radialGradient
       id="SVGID_12_"
       cx="1966.1328"
       cy="605.51727"
       r="4.2332001"
       gradientTransform="matrix(1.0725,0,0,-0.9931,-583.3926,1412.5)"
       gradientUnits="userSpaceOnUse">
      <stop
         offset="0"
         style="stop-color:#FFF1E9"
         id="stop3072" />
      <stop
         offset="1"
         style="stop-color:#FFFFFF;stop-opacity:0.2"
         id="stop3074" />
    </radialGradient>
    <radialGradient
       id="SVGID_13_"
       cx="1956.8027"
       cy="572.02118"
       r="5.2405"
       gradientTransform="matrix(1.0725,0,0,-0.9931,-583.3926,1412.5)"
       gradientUnits="userSpaceOnUse">
      <stop
         offset="0"
         style="stop-color:#FFF1E9"
         id="stop3079" />
      <stop
         offset="1"
         style="stop-color:#FFFFFF;stop-opacity:0.2"
         id="stop3081" />
    </radialGradient>
    <linearGradient
       id="SVGID_14_"
       gradientUnits="userSpaceOnUse"
       x1="1884.0078"
       y1="492.96851"
       x2="2795.1436"
       y2="492.96851"
       gradientTransform="matrix(1,0,0,-1,-370.1396,1414.5581)">
      <stop
         offset="0"
         style="stop-color:#FFFFFF;stop-opacity:0.5"
         id="stop3087" />
      <stop
         offset="1"
         style="stop-color:#FFFFFF;stop-opacity:0"
         id="stop3089" />
    </linearGradient>
    <linearGradient
       id="SVGID_15_"
       gradientUnits="userSpaceOnUse"
       x1="1968.874"
       y1="623.40698"
       x2="2226.1133"
       y2="623.40698"
       gradientTransform="matrix(1,0,0,-1,-370.1396,1414.5581)">
      <stop
         offset="0"
         style="stop-color:#FFFFFF;stop-opacity:0.5"
         id="stop3094" />
      <stop
         offset="1"
         style="stop-color:#FFFFFF;stop-opacity:0"
         id="stop3096" />
    </linearGradient>
    <linearGradient
       id="SVGID_16_"
       gradientUnits="userSpaceOnUse"
       x1="1490.4814"
       y1="559.43768"
       x2="2186.2031"
       y2="559.43768"
       gradientTransform="matrix(1,0,0,-1,-370.1396,1414.5581)">
      <stop
         offset="0"
         style="stop-color:#FFFFFF;stop-opacity:0.5"
         id="stop3101" />
      <stop
         offset="1"
         style="stop-color:#FFFFFF;stop-opacity:0"
         id="stop3103" />
    </linearGradient>
    <linearGradient
       id="SVGID_17_"
       gradientUnits="userSpaceOnUse"
       x1="2133.0742"
       y1="436.4631"
       x2="2139.2012"
       y2="436.4631"
       gradientTransform="matrix(1,0,0,-1,-370.1396,1414.5581)">
      <stop
         offset="0"
         style="stop-color:#FFFFFF;stop-opacity:0.5"
         id="stop3108" />
      <stop
         offset="1"
         style="stop-color:#FFFFFF;stop-opacity:0"
         id="stop3110" />
    </linearGradient>
    <linearGradient
       id="SVGID_18_"
       gradientUnits="userSpaceOnUse"
       x1="1448.4756"
       y1="284.39331"
       x2="2361.0127"
       y2="284.39331"
       gradientTransform="matrix(1,0,0,-1,-370.1396,1414.5581)">
      <stop
         offset="0"
         style="stop-color:#FFFFFF;stop-opacity:0"
         id="stop3115" />
      <stop
         offset="1"
         style="stop-color:#FFFFFF;stop-opacity:0.5"
         id="stop3117" />
    </linearGradient>
    <radialGradient
       id="SVGID_19_"
       cx="1879.1934"
       cy="436.46701"
       r="486.3092"
       gradientTransform="matrix(1,0,0,-1,-370.1396,1414.5581)"
       gradientUnits="userSpaceOnUse">
      <stop
         offset="0"
         style="stop-color:#FFFFFF;stop-opacity:0.5"
         id="stop3122" />
      <stop
         offset="1"
         style="stop-color:#FFFFFF;stop-opacity:0"
         id="stop3124" />
    </radialGradient>
    <radialGradient
       id="SVGID_20_"
       cx="1910.4883"
       cy="503.66379"
       r="466.0838"
       gradientTransform="matrix(1,0,0,-1,-370.1396,1414.5581)"
       gradientUnits="userSpaceOnUse">
      <stop
         offset="0"
         style="stop-color:#FFFFFF;stop-opacity:0.5"
         id="stop3129" />
      <stop
         offset="1"
         style="stop-color:#FFFFFF;stop-opacity:0"
         id="stop3131" />
    </radialGradient>
    <linearGradient
       id="SVGID_21_"
       gradientUnits="userSpaceOnUse"
       x1="1142.0469"
       y1="1043.9666"
       x2="1592.0254"
       y2="1043.9666"
       gradientTransform="matrix(0.5366,0,0,-0.4054,968.6461,1402.0491)">
      <stop
         offset="0"
         style="stop-color:#FFFFFF;stop-opacity:0.5"
         id="stop3136" />
      <stop
         offset="1"
         style="stop-color:#FFFFFF;stop-opacity:0"
         id="stop3138" />
    </linearGradient>
    <clipPath
       clipPathUnits="userSpaceOnUse"
       id="clipPath4302">
      <rect
         style="fill:#0000ff;fill-opacity:0.15837103;fill-rule:evenodd;stroke:#000000;stroke-width:0.9903481px;stroke-linecap:butt;stroke-linejoin:miter;stroke-opacity:1"
         id="rect4304"
         width="1020.0096"
         height="874.29529"
         x="-696.75702"
         y="-557.0932" />
    </clipPath>
    <clipPath
       clipPathUnits="userSpaceOnUse"
       id="clipPath4302-3">
      <rect
         style="fill:#0000ff;fill-opacity:0.15837103;fill-rule:evenodd;stroke:#000000;stroke-width:0.9903481px;stroke-linecap:butt;stroke-linejoin:miter;stroke-opacity:1"
         id="rect4304-6"
         width="1020.0096"
         height="874.29529"
         x="-696.75702"
         y="-557.0932" />
    </clipPath>
    <radialGradient
       id="SVGID_2_-7"
       cx="2146.8174"
       cy="478.19849"
       r="6.7435002"
       gradientTransform="matrix(1.0725,0,0,-0.9931,-583.3926,1412.5)"
       gradientUnits="userSpaceOnUse">
      <stop
         offset="0"
         style="stop-color:#FFF1E9"
         id="stop3002-5" />
      <stop
         offset="1"
         style="stop-color:#FFFFFF;stop-opacity:0.2"
         id="stop3004-3" />
    </radialGradient>
    <radialGradient
       id="SVGID_3_-5"
       cx="2176.1582"
       cy="498.5618"
       r="7.6339998"
       gradientTransform="matrix(1.0725,0,0,-0.9931,-583.3926,1412.5)"
       gradientUnits="userSpaceOnUse">
      <stop
         offset="0"
         style="stop-color:#FFF1E9"
         id="stop3009-6" />
      <stop
         offset="1"
         style="stop-color:#FFFFFF;stop-opacity:0.2"
         id="stop3011-2" />
    </radialGradient>
    <radialGradient
       id="SVGID_4_-9"
       cx="2185.4512"
       cy="528.25659"
       r="3.7077"
       gradientTransform="matrix(1.0725,0,0,-0.9931,-583.3926,1412.5)"
       gradientUnits="userSpaceOnUse">
      <stop
         offset="0"
         style="stop-color:#FFF1E9"
         id="stop3016-1" />
      <stop
         offset="1"
         style="stop-color:#FFFFFF;stop-opacity:0.2"
         id="stop3018-2" />
    </radialGradient>
    <radialGradient
       id="SVGID_5_-7"
       cx="2120.5449"
       cy="693.31232"
       r="3.3676"
       gradientTransform="matrix(1.0725,0,0,-0.9931,-583.3926,1412.5)"
       gradientUnits="userSpaceOnUse">
      <stop
         offset="0"
         style="stop-color:#FFF1E9"
         id="stop3023-0" />
      <stop
         offset="1"
         style="stop-color:#FFFFFF;stop-opacity:0.2"
         id="stop3025-9" />
    </radialGradient>
    <radialGradient
       id="SVGID_6_-3"
       cx="2121.502"
       cy="692.0271"
       r="0.86989999"
       gradientTransform="matrix(1.0725,0,0,-0.9931,-583.3926,1412.5)"
       gradientUnits="userSpaceOnUse">
      <stop
         offset="0"
         style="stop-color:#FFF1E9"
         id="stop3030-6" />
      <stop
         offset="1"
         style="stop-color:#FFFFFF;stop-opacity:0.2"
         id="stop3032-0" />
    </radialGradient>
    <radialGradient
       id="SVGID_7_-6"
       cx="2110.9863"
       cy="490.52371"
       r="181.8613"
       gradientTransform="matrix(1.0725,0,0,-0.9931,-583.3926,1412.5)"
       gradientUnits="userSpaceOnUse">
      <stop
         offset="0"
         style="stop-color:#FFF1E9"
         id="stop3037-2" />
      <stop
         offset="1"
         style="stop-color:#FFFFFF;stop-opacity:0.2"
         id="stop3039-6" />
    </radialGradient>
    <radialGradient
       id="SVGID_8_-1"
       cx="2075.959"
       cy="459.5647"
       r="9.1426001"
       gradientTransform="matrix(1.0725,0,0,-0.9931,-583.3926,1412.5)"
       gradientUnits="userSpaceOnUse">
      <stop
         offset="0"
         style="stop-color:#FFF1E9"
         id="stop3044-8" />
      <stop
         offset="1"
         style="stop-color:#FFFFFF;stop-opacity:0.2"
         id="stop3046-7" />
    </radialGradient>
    <radialGradient
       id="SVGID_9_-9"
       cx="2078.8184"
       cy="472.58179"
       r="5.9285998"
       gradientTransform="matrix(1.0725,0,0,-0.9931,-583.3926,1412.5)"
       gradientUnits="userSpaceOnUse">
      <stop
         offset="0"
         style="stop-color:#FFF1E9"
         id="stop3051-2" />
      <stop
         offset="1"
         style="stop-color:#FFFFFF;stop-opacity:0.2"
         id="stop3053-0" />
    </radialGradient>
    <radialGradient
       id="SVGID_10_-2"
       cx="2249.8457"
       cy="491.91821"
       r="15.0487"
       gradientTransform="matrix(1.0725,0,0,-0.9931,-583.3926,1412.5)"
       gradientUnits="userSpaceOnUse">
      <stop
         offset="0"
         style="stop-color:#FFF1E9"
         id="stop3058-3" />
      <stop
         offset="1"
         style="stop-color:#FFFFFF;stop-opacity:0.2"
         id="stop3060-7" />
    </radialGradient>
    <radialGradient
       id="SVGID_11_-5"
       cx="2123.4619"
       cy="698.66382"
       r="6.3271999"
       gradientTransform="matrix(1.0725,0,0,-0.9931,-583.3926,1412.5)"
       gradientUnits="userSpaceOnUse">
      <stop
         offset="0"
         style="stop-color:#FFF1E9"
         id="stop3065-9" />
      <stop
         offset="1"
         style="stop-color:#FFFFFF;stop-opacity:0.2"
         id="stop3067-2" />
    </radialGradient>
    <radialGradient
       id="SVGID_12_-2"
       cx="1966.1328"
       cy="605.51727"
       r="4.2332001"
       gradientTransform="matrix(1.0725,0,0,-0.9931,-583.3926,1412.5)"
       gradientUnits="userSpaceOnUse">
      <stop
         offset="0"
         style="stop-color:#FFF1E9"
         id="stop3072-8" />
      <stop
         offset="1"
         style="stop-color:#FFFFFF;stop-opacity:0.2"
         id="stop3074-9" />
    </radialGradient>
    <radialGradient
       id="SVGID_13_-7"
       cx="1956.8027"
       cy="572.02118"
       r="5.2405"
       gradientTransform="matrix(1.0725,0,0,-0.9931,-583.3926,1412.5)"
       gradientUnits="userSpaceOnUse">
      <stop
         offset="0"
         style="stop-color:#FFF1E9"
         id="stop3079-3" />
      <stop
         offset="1"
         style="stop-color:#FFFFFF;stop-opacity:0.2"
         id="stop3081-6" />
    </radialGradient>
    <radialGradient
       id="SVGID_19_-5"
       cx="1879.1934"
       cy="436.46701"
       r="486.3092"
       gradientTransform="matrix(1,0,0,-1,-370.1396,1414.5581)"
       gradientUnits="userSpaceOnUse">
      <stop
         offset="0"
         style="stop-color:#FFFFFF;stop-opacity:0.5"
         id="stop3122-0" />
      <stop
         offset="1"
         style="stop-color:#FFFFFF;stop-opacity:0"
         id="stop3124-3" />
    </radialGradient>
    <radialGradient
       id="SVGID_20_-6"
       cx="1910.4883"
       cy="503.66379"
       r="466.0838"
       gradientTransform="matrix(1,0,0,-1,-370.1396,1414.5581)"
       gradientUnits="userSpaceOnUse">
      <stop
         offset="0"
         style="stop-color:#FFFFFF;stop-opacity:0.5"
         id="stop3129-1" />
      <stop
         offset="1"
         style="stop-color:#FFFFFF;stop-opacity:0"
         id="stop3131-0" />
    </radialGradient>
  </defs>
  <sodipodi:namedview
     id="base"
     pagecolor="#ffffff"
     bordercolor="#666666"
     borderopacity="1.0"
     inkscape:pageopacity="0"
     inkscape:pageshadow="2"
     inkscape:zoom="0.35"
     inkscape:cx="64.609306"
     inkscape:cy="409.55369"
     inkscape:document-units="px"
     inkscape:current-layer="layer1"
     showgrid="false"
     fit-margin-top="0"
     fit-margin-left="0"
     fit-margin-right="0"
     fit-margin-bottom="0"
     inkscape:window-width="1920"
     inkscape:window-height="1135"
     inkscape:window-x="1920"
     inkscape:window-y="0"
     inkscape:window-maximized="1" />
  <metadata
     id="metadata6375">
    <rdf:RDF>
      <cc:Work
         rdf:about="">
        <dc:format>image/svg+xml</dc:format>
        <dc:type
           rdf:resource="http://purl.org/dc/dcmitype/StillImage" />
        <dc:title></dc:title>
      </cc:Work>
    </rdf:RDF>
  </metadata>
  <g
     inkscape:label="Calque 1"
     inkscape:groupmode="layer"
     id="layer1"
     transform="translate(696.75218,222.79791)">
    <g
       id="g4263"
       transform="matrix(1.238097,0,0,1.238097,-1990.551,-1039.2214)"
       style="fill:#e6e6e6">
      <path
         style="fill:#e6e6e6"
         inkscape:connector-curvature="0"
         class="st251"
         d="m 1791.6,909.6 c -0.9,-2.8 -4,-7.9 -6.7,-11.3 -2.7,-3.4 -7.1,-7.4 -9.8,-8.9 -2.6,-1.6 -14.9,1.8 -21,4.6 l -4.5,2.1 c -6.2,2.8 -11.3,5.2 -11.4,5.2 -0.1,0.1 -0.8,0 -1.4,-0.2 -0.6,-0.2 -7.4,-1.9 -14,-3.5 l -11.8,-2.8 c -6.6,-1.6 -14.2,-3 -16.9,-3.3 -2.7,-0.2 -14.2,1.7 -20.8,3.2 l -12.6,2.9 c -6.6,1.6 -12.5,2.9 -13,3.1 -0.5,0.2 -2.1,0.7 -2.2,0.7 -0.1,-0.1 -5.5,-2.5 -11.6,-5.3 l -4.5,-2.1 c -6.2,-2.8 -13.7,-5.3 -16.9,-5.5 -3.2,-0.2 -11.2,6.4 -13.9,9.8 -2.7,3.4 -5.7,8.5 -6.7,11.3 -1,2.8 4.2,14 8,19.7 l 7.8,11.5 c 3.8,5.6 5.9,12.1 4.6,14.4 -1.2,2.3 -3,6.4 -3.8,9.2 -0.8,2.7 0.1,14.7 1.2,21.4 l 2.4,14.2 c 1.1,6.7 3.3,14.4 4.7,17.1 1.5,2.7 13.1,7.6 19.7,9.2 l 3,0.7 c 0.5,0.1 1,0.2 1.6,0.4 -9.8,5.2 -18.8,11.6 -26.9,18.8 -1.2,1.1 0.3,2.6 1.6,1.8 10.2,-6.8 19.9,-13.1 30.2,-18.6 2,1.1 4,2.3 5.8,3.6 -8.4,6.7 -15.5,15.3 -20.6,23.1 -0.6,0.9 0.6,2.2 1.6,1.3 7.5,-7.1 14.2,-15.4 22,-22.1 1.6,1.5 3,3 4.1,4.5 l 0.6,0.8 c -9.1,8.7 -16.1,20.5 -20.3,30.4 -0.5,1.1 1.1,1.8 1.8,0.9 7,-9.3 12.7,-20.1 20.6,-28.5 l 2.6,3.6 c 4,5.5 9.1,11.5 11.5,13.5 2.3,1.8 12.2,3.4 16.2,3.4 4,0 9.5,-0.7 12.4,-1.5 2.9,-0.8 11.3,-9.8 15.3,-15.4 l 2.6,-3.6 c 7.9,8.5 13.6,19.3 20.7,28.7 0.7,1 2.1,-0.1 1.7,-1.1 -4.1,-9.9 -11.2,-21.7 -20.3,-30.4 l 0.5,-0.7 c 1.1,-1.6 2.6,-3.1 4.2,-4.5 7.8,6.6 14.5,14.9 21.9,22 1,0.9 2.3,-0.2 1.6,-1.3 -5,-7.7 -12.2,-16.3 -20.5,-22.9 1.8,-1.3 3.8,-2.6 5.8,-3.6 10.3,5.5 20.1,11.8 30.2,18.6 1.3,0.8 2.5,-1 1.3,-2 -8,-7.1 -17.1,-13.4 -26.8,-18.7 0.4,-0.1 0.9,-0.3 1.3,-0.4 l 3.1,-0.8 c 6.6,-1.7 14.1,-4.4 16.7,-6 2.6,-1.6 6.5,-13.6 7.7,-20.3 l 2.4,-14.2 c 1.1,-6.7 2,-14.5 1.9,-17.3 -0.1,-2.8 -3.2,-10.9 -4.5,-13.2 -1.2,-2.3 0.8,-8.8 4.6,-14.4 l 7.8,-11.5 c 3.9,-5.7 9.1,-17 8.1,-19.8 z m -184.3,13.1 c -3.4,-5 -6.3,-9.4 -6.4,-9.9 0,0 0,0 0,-0.5 0,-0.7 0,-0.7 0,-0.7 0.2,-0.6 2.6,-3.8 5.4,-7.2 2.8,-3.4 5.4,-6.4 5.9,-6.7 0.6,-0.2 7,2.3 13.2,5.1 l 1,0.4 c 6.2,2.8 11.1,5.2 11,5.5 -0.1,0.2 -3,5.5 -6.2,11.5 l -5.5,10.1 c -3.2,6.1 -15,-2.6 -18.4,-7.6 z m 95.2,130.4 c -1.1,0.7 -6.8,1.4 -10.7,1.4 -4,0 -8.1,-0.3 -9.3,-0.7 -0.5,-0.2 -1.7,-1.3 -3.2,-3 l 8.1,-7.5 c 2.4,-2.2 4.4,-4 4.4,-4 0,0 2,1.8 4.4,4 l 8.4,7.6 c -1,1.1 -1.7,1.9 -2.1,2.2 z m 61.6,-68.9 -2.4,14.2 c -1.1,6.7 -2.5,12.8 -3,13.7 -0.5,0.8 -6.2,2.8 -11.1,4 -4.9,1.2 -8.8,1.4 -8.6,0.4 0.2,-1 -2.6,-7.9 -6.3,-13.2 -3.7,-5.3 -6.7,-9.6 -6.7,-9.3 0,0.2 0.8,4.5 1.8,9.3 1,4.8 1.6,9.8 1.6,11.3 -0.1,1.5 -1.8,4.8 -2.3,5.5 0,0 0,0.1 -0.1,0.1 -6.2,-2.5 -12.6,-4.6 -18.9,-6.2 -1.7,-0.4 -2.8,2.1 -1,2.6 6.2,1.8 12.1,4 17.8,6.6 -0.7,1.1 -1.6,2.2 -2.5,3.5 -4.9,-2.6 -10,-4.4 -15.2,-4.9 -1.5,-0.1 -1.6,2.1 -0.2,2.3 5,1 9.4,2.8 13.5,5.2 -1.1,1.6 -2.4,3.3 -3.8,5.3 -3.4,-2.3 -7,-4 -10.8,-5 -1.4,-0.4 -2.2,1.7 -0.8,2.1 3.6,1.3 6.9,3.2 9.8,5.3 -1.4,1.9 -2.8,3.9 -4,5.6 -0.7,1.1 -1.6,2.1 -2.3,3.1 -0.1,-0.1 -0.3,-0.2 -0.4,-0.3 l -9,-6.1 c -2.7,-1.8 -4.9,-3.4 -4.9,-3.5 0,-0.1 0,-3 0,-6.2 v -9.1 c 0.1,-0.1 0.1,-0.2 0.2,-0.4 l 14.5,-16.6 c 1.5,-2.9 0,-5.3 -3.3,-5.3 H 1678 c -3.3,0 -4.7,2.4 -3.3,5.3 l 14.5,16.6 c 0.1,0.1 0.1,0.2 0.2,0.4 v 9.1 c 0,3.3 0,5.9 0,6 0,0.1 -2.1,1.8 -4.9,3.6 l -9,6.1 c -0.1,0.1 -0.2,0.2 -0.4,0.3 -0.8,-1.1 -1.6,-2.1 -2.4,-3.1 -1.2,-1.6 -2.6,-3.5 -4,-5.5 3,-2.1 6.2,-4 9.8,-5.4 1.2,-0.4 0.6,-2.5 -0.7,-2.1 -3.8,1.1 -7.4,2.8 -11,5.1 -1.4,-1.9 -2.7,-3.8 -3.8,-5.3 4,-2.4 8.5,-4.2 13.5,-5.2 1.5,-0.3 1.1,-2.4 -0.4,-2.3 -5.2,0.5 -10.2,2.2 -15.1,4.9 -0.9,-1.2 -1.8,-2.5 -2.5,-3.5 5.6,-2.5 11.4,-4.6 17.5,-6.4 1.7,-0.5 1.3,-3.2 -0.5,-2.8 -6.4,1.6 -12.9,3.7 -19.2,6.2 -0.1,-0.1 -0.1,-0.1 -0.1,-0.1 -0.5,-0.7 -1.3,-2.4 -1.8,-3.8 -0.5,-1.3 0.2,-8.3 1.1,-13 0.9,-4.7 1.7,-8.8 1.7,-9 0,-0.2 -3,3.7 -6.6,9 -3.7,5.4 -6.6,10.5 -6.5,11.5 0.1,1 -3.5,2.5 -8.4,1.2 -4.9,-1.2 -9.6,-2.6 -10.3,-3.2 -0.8,-0.6 -2.6,-7.9 -3.7,-14.5 l -2.4,-14.2 c -1.1,-6.7 -2,-13.5 -1.9,-15.2 0.1,-1.6 1.9,-6.3 2.8,-8 0.8,-1.7 4.2,-7.9 7.4,-13.9 l 11.9,-22.2 c 3.2,-5.9 6.6,-11.7 7.6,-12.7 1,-1 3.7,-2.3 3.8,-2.3 0.1,0 5.6,-1.3 12.2,-2.8 l 12.2,-2.8 c 6.6,-1.6 13.5,-2.9 15.4,-3 1.9,-0.1 11.3,1.6 17.8,3.1 l 11.4,2.6 c 6.6,1.6 12.1,2.8 12.2,2.8 0.1,0 1.2,0.6 2.5,1.3 1.2,0.7 5.7,7.8 8.9,13.7 l 11.9,22.2 c 3.2,5.9 6.5,12.3 7.4,13.9 0.9,1.7 2.7,6.4 2.8,8 0.5,1.8 -0.3,8.6 -1.5,15.4 z m 18.6,-71.9 c 0,0.5 0,0.5 0,0.5 -0.2,0.4 -3.1,5 -6.4,9.9 -3.3,4.9 -15.2,13.7 -18.3,7.7 l -5.5,-10.1 c -3.2,-5.9 -5.9,-11 -5.9,-11.2 -0.1,-0.2 4.6,-3 10.8,-5.7 l 1,-0.4 c 6.2,-2.8 11.8,-5.1 12.5,-5.2 0.7,0 3.9,3.3 6.6,6.7 2.7,3.4 5.1,6.7 5.4,7.2 -0.2,-0.1 -0.2,-0.1 -0.2,0.6 z"
         id="path4265" />
      <path
         style="fill:#e6e6e6"
         inkscape:connector-curvature="0"
         class="st251"
         d="m 1678.2,958.8 c -1.2,0.1 -5.1,0.1 -8.6,0.2 l -29.7,0.8 c -3.5,0.1 -3.5,0.6 -0.1,1.1 l 18.2,2.6 c -0.1,0.2 -0.1,0.5 -0.1,0.7 0,2.2 1.8,4 4,4 2.1,0 3.8,-1.6 4,-3.6 l 2.9,0.4 c 3.5,0.5 6,3.8 5.7,7.2 l -3.7,13 c -0.3,3.5 0.8,6.4 2.4,6.5 1.6,0.1 3,0.1 3,-0.1 0,-0.1 0.1,-3.1 0.3,-6.6 l 3,-12.2 c 0.1,-3.5 0.4,-8.1 0.4,-10.3 0.4,-2 -0.5,-3.7 -1.7,-3.7 z"
         id="path4267" />
      <path
         style="fill:#e6e6e6"
         inkscape:connector-curvature="0"
         class="st251"
         d="m 1743.7,959.9 -29.7,-0.8 c -3.5,-0.1 -7.4,-0.2 -8.6,-0.2 -1.2,-0.1 -2.1,1.7 -2.1,3.9 0.1,2.1 0.3,6.9 0.4,10.3 l 3,12.2 c 0.1,3.5 0.3,6.4 0.3,6.6 0,0.1 1.3,0.2 3,0.1 1.7,-0.1 2.8,-3.1 2.4,-6.5 l -3.7,-13 c -0.3,-3.5 2.3,-6.7 5.7,-7.2 l 2.9,-0.4 c 0.2,2.1 1.9,3.6 4,3.6 2.2,0 4,-1.8 4,-4 0,-0.2 0,-0.5 -0.1,-0.7 l 18.2,-2.6 c 3.8,-0.8 3.8,-1.3 0.3,-1.3 z"
         id="path4269" />
      <path
         style="fill:#e6e6e6"
         inkscape:connector-curvature="0"
         class="st251"
         d="m 1653.6,928.7 c 3.5,0 6.5,-3.6 6.5,-8.1 0,-4.5 -2.9,-8.1 -6.5,-8.1 -3.5,0 -6.5,3.6 -6.5,8.1 0,4.4 2.9,8.1 6.5,8.1 z"
         id="path4271" />
      <path
         style="fill:#e6e6e6"
         inkscape:connector-curvature="0"
         class="st251"
         d="m 1645.9,941.6 c 3,0 5.5,-2.4 5.5,-5.5 0,-3.1 -2.4,-5.5 -5.5,-5.5 -3.1,0 -5.5,2.4 -5.5,5.5 0.1,3.1 2.5,5.5 5.5,5.5 z"
         id="path4273" />
      <path
         style="fill:#e6e6e6"
         inkscape:connector-curvature="0"
         class="st251"
         d="m 1671,923.7 c 1.7,0.6 4,-1.8 5.1,-5.2 1.1,-3.5 0.6,-6.7 -1.1,-7.2 -1.7,-0.5 -4,1.8 -5,5.2 -1.3,3.4 -0.8,6.7 1,7.2 z"
         id="path4275" />
      <path
         style="fill:#e6e6e6"
         inkscape:connector-curvature="0"
         class="st251"
         d="m 1664.1,941.1 c 2.1,0 3.8,-1.5 3.8,-3.3 0,-1.8 -1.7,-3.3 -3.8,-3.3 -2.1,0 -3.8,1.5 -3.8,3.3 -0.1,1.8 1.7,3.3 3.8,3.3 z"
         id="path4277" />
      <path
         style="fill:#e6e6e6"
         inkscape:connector-curvature="0"
         class="st251"
         d="m 1755.3,997.6 c -2.7,-1.3 -5.9,-0.2 -7.3,2.5 -1.3,2.7 -0.2,5.9 2.5,7.3 2.7,1.3 5.9,0.2 7.3,-2.4 1.3,-2.8 0.2,-6 -2.5,-7.4 z"
         id="path4279" />
      <path
         style="fill:#e6e6e6"
         inkscape:connector-curvature="0"
         class="st251"
         d="m 1751.5,993.2 c 1.8,0.2 3.7,-2.4 4.2,-5.9 0.5,-3.5 -0.4,-6.7 -2.2,-6.9 -1.8,-0.3 -3.7,2.4 -4.2,5.9 -0.5,3.5 0.4,6.6 2.2,6.9 z"
         id="path4281" />
      <path
         style="fill:#e6e6e6"
         inkscape:connector-curvature="0"
         class="st251"
         d="m 1744.2,993.2 c -1.9,-0.9 -4,-0.4 -4.9,1.2 -0.8,1.6 0.1,3.7 2,4.6 1.9,0.9 4,0.4 4.9,-1.2 0.7,-1.6 -0.1,-3.7 -2,-4.6 z"
         id="path4283" />
    </g>
  </g>
</svg>
