<?xml version="1.0" encoding="UTF-8" standalone="no"?>
<!-- Created with Inkscape (http://www.inkscape.org/) -->

<svg
   xmlns:dc="http://purl.org/dc/elements/1.1/"
   xmlns:cc="http://creativecommons.org/ns#"
   xmlns:rdf="http://www.w3.org/1999/02/22-rdf-syntax-ns#"
   xmlns:svg="http://www.w3.org/2000/svg"
   xmlns="http://www.w3.org/2000/svg"
   xmlns:sodipodi="http://sodipodi.sourceforge.net/DTD/sodipodi-0.dtd"
   xmlns:inkscape="http://www.inkscape.org/namespaces/inkscape"
   width="960"
   height="540"
   id="svg6370"
   version="1.1"
   inkscape:version="0.92.1 r15371"
   viewBox="0 0 959.9999 540"
   sodipodi:docname="login_logo.svg">
  <defs
     id="defs6372">
    <radialGradient
       id="SVGID_2_"
       cx="2146.8174"
       cy="478.19849"
       r="6.7435002"
       gradientTransform="matrix(1.0725,0,0,-0.9931,-583.3926,1412.5)"
       gradientUnits="userSpaceOnUse">
      <stop
         offset="0"
         style="stop-color:#FFF1E9"
         id="stop3002" />
      <stop
         offset="1"
         style="stop-color:#FFFFFF;stop-opacity:0.2"
         id="stop3004" />
    </radialGradient>
    <radialGradient
       id="SVGID_3_"
       cx="2176.1582"
       cy="498.5618"
       r="7.6339998"
       gradientTransform="matrix(1.0725,0,0,-0.9931,-583.3926,1412.5)"
       gradientUnits="userSpaceOnUse">
      <stop
         offset="0"
         style="stop-color:#FFF1E9"
         id="stop3009" />
      <stop
         offset="1"
         style="stop-color:#FFFFFF;stop-opacity:0.2"
         id="stop3011" />
    </radialGradient>
    <radialGradient
       id="SVGID_4_"
       cx="2185.4512"
       cy="528.25659"
       r="3.7077"
       gradientTransform="matrix(1.0725,0,0,-0.9931,-583.3926,1412.5)"
       gradientUnits="userSpaceOnUse">
      <stop
         offset="0"
         style="stop-color:#FFF1E9"
         id="stop3016" />
      <stop
         offset="1"
         style="stop-color:#FFFFFF;stop-opacity:0.2"
         id="stop3018" />
    </radialGradient>
    <radialGradient
       id="SVGID_5_"
       cx="2120.5449"
       cy="693.31232"
       r="3.3676"
       gradientTransform="matrix(1.0725,0,0,-0.9931,-583.3926,1412.5)"
       gradientUnits="userSpaceOnUse">
      <stop
         offset="0"
         style="stop-color:#FFF1E9"
         id="stop3023" />
      <stop
         offset="1"
         style="stop-color:#FFFFFF;stop-opacity:0.2"
         id="stop3025" />
    </radialGradient>
    <radialGradient
       id="SVGID_6_"
       cx="2121.502"
       cy="692.0271"
       r="0.86989999"
       gradientTransform="matrix(1.0725,0,0,-0.9931,-583.3926,1412.5)"
       gradientUnits="userSpaceOnUse">
      <stop
         offset="0"
         style="stop-color:#FFF1E9"
         id="stop3030" />
      <stop
         offset="1"
         style="stop-color:#FFFFFF;stop-opacity:0.2"
         id="stop3032" />
    </radialGradient>
    <radialGradient
       id="SVGID_7_"
       cx="2110.9863"
       cy="490.52371"
       r="181.8613"
       gradientTransform="matrix(1.0725,0,0,-0.9931,-583.3926,1412.5)"
       gradientUnits="userSpaceOnUse">
      <stop
         offset="0"
         style="stop-color:#FFF1E9"
         id="stop3037" />
      <stop
         offset="1"
         style="stop-color:#FFFFFF;stop-opacity:0.2"
         id="stop3039" />
    </radialGradient>
    <radialGradient
       id="SVGID_8_"
       cx="2075.959"
       cy="459.5647"
       r="9.1426001"
       gradientTransform="matrix(1.0725,0,0,-0.9931,-583.3926,1412.5)"
       gradientUnits="userSpaceOnUse">
      <stop
         offset="0"
         style="stop-color:#FFF1E9"
         id="stop3044" />
      <stop
         offset="1"
         style="stop-color:#FFFFFF;stop-opacity:0.2"
         id="stop3046" />
    </radialGradient>
    <radialGradient
       id="SVGID_9_"
       cx="2078.8184"
       cy="472.58179"
       r="5.9285998"
       gradientTransform="matrix(1.0725,0,0,-0.9931,-583.3926,1412.5)"
       gradientUnits="userSpaceOnUse">
      <stop
         offset="0"
         style="stop-color:#FFF1E9"
         id="stop3051" />
      <stop
         offset="1"
         style="stop-color:#FFFFFF;stop-opacity:0.2"
         id="stop3053" />
    </radialGradient>
    <radialGradient
       id="SVGID_10_"
       cx="2249.8457"
       cy="491.91821"
       r="15.0487"
       gradientTransform="matrix(1.0725,0,0,-0.9931,-583.3926,1412.5)"
       gradientUnits="userSpaceOnUse">
      <stop
         offset="0"
         style="stop-color:#FFF1E9"
         id="stop3058" />
      <stop
         offset="1"
         style="stop-color:#FFFFFF;stop-opacity:0.2"
         id="stop3060" />
    </radialGradient>
    <radialGradient
       id="SVGID_11_"
       cx="2123.4619"
       cy="698.66382"
       r="6.3271999"
       gradientTransform="matrix(1.0725,0,0,-0.9931,-583.3926,1412.5)"
       gradientUnits="userSpaceOnUse">
      <stop
         offset="0"
         style="stop-color:#FFF1E9"
         id="stop3065" />
      <stop
         offset="1"
         style="stop-color:#FFFFFF;stop-opacity:0.2"
         id="stop3067" />
    </radialGradient>
    <radialGradient
       id="SVGID_12_"
       cx="1966.1328"
       cy="605.51727"
       r="4.2332001"
       gradientTransform="matrix(1.0725,0,0,-0.9931,-583.3926,1412.5)"
       gradientUnits="userSpaceOnUse">
      <stop
         offset="0"
         style="stop-color:#FFF1E9"
         id="stop3072" />
      <stop
         offset="1"
         style="stop-color:#FFFFFF;stop-opacity:0.2"
         id="stop3074" />
    </radialGradient>
    <radialGradient
       id="SVGID_13_"
       cx="1956.8027"
       cy="572.02118"
       r="5.2405"
       gradientTransform="matrix(1.0725,0,0,-0.9931,-583.3926,1412.5)"
       gradientUnits="userSpaceOnUse">
      <stop
         offset="0"
         style="stop-color:#FFF1E9"
         id="stop3079" />
      <stop
         offset="1"
         style="stop-color:#FFFFFF;stop-opacity:0.2"
         id="stop3081" />
    </radialGradient>
    <linearGradient
       id="SVGID_14_"
       gradientUnits="userSpaceOnUse"
       x1="1884.0078"
       y1="492.96851"
       x2="2795.1436"
       y2="492.96851"
       gradientTransform="matrix(1,0,0,-1,-370.1396,1414.5581)">
      <stop
         offset="0"
         style="stop-color:#FFFFFF;stop-opacity:0.5"
         id="stop3087" />
      <stop
         offset="1"
         style="stop-color:#FFFFFF;stop-opacity:0"
         id="stop3089" />
    </linearGradient>
    <linearGradient
       id="SVGID_15_"
       gradientUnits="userSpaceOnUse"
       x1="1968.874"
       y1="623.40698"
       x2="2226.1133"
       y2="623.40698"
       gradientTransform="matrix(1,0,0,-1,-370.1396,1414.5581)">
      <stop
         offset="0"
         style="stop-color:#FFFFFF;stop-opacity:0.5"
         id="stop3094" />
      <stop
         offset="1"
         style="stop-color:#FFFFFF;stop-opacity:0"
         id="stop3096" />
    </linearGradient>
    <linearGradient
       id="SVGID_16_"
       gradientUnits="userSpaceOnUse"
       x1="1490.4814"
       y1="559.43768"
       x2="2186.2031"
       y2="559.43768"
       gradientTransform="matrix(1,0,0,-1,-370.1396,1414.5581)">
      <stop
         offset="0"
         style="stop-color:#FFFFFF;stop-opacity:0.5"
         id="stop3101" />
      <stop
         offset="1"
         style="stop-color:#FFFFFF;stop-opacity:0"
         id="stop3103" />
    </linearGradient>
    <linearGradient
       id="SVGID_17_"
       gradientUnits="userSpaceOnUse"
       x1="2133.0742"
       y1="436.4631"
       x2="2139.2012"
       y2="436.4631"
       gradientTransform="matrix(1,0,0,-1,-370.1396,1414.5581)">
      <stop
         offset="0"
         style="stop-color:#FFFFFF;stop-opacity:0.5"
         id="stop3108" />
      <stop
         offset="1"
         style="stop-color:#FFFFFF;stop-opacity:0"
         id="stop3110" />
    </linearGradient>
    <linearGradient
       id="SVGID_18_"
       gradientUnits="userSpaceOnUse"
       x1="1448.4756"
       y1="284.39331"
       x2="2361.0127"
       y2="284.39331"
       gradientTransform="matrix(1,0,0,-1,-370.1396,1414.5581)">
      <stop
         offset="0"
         style="stop-color:#FFFFFF;stop-opacity:0"
         id="stop3115" />
      <stop
         offset="1"
         style="stop-color:#FFFFFF;stop-opacity:0.5"
         id="stop3117" />
    </linearGradient>
    <radialGradient
       id="SVGID_19_"
       cx="1879.1934"
       cy="436.46701"
       r="486.3092"
       gradientTransform="matrix(1,0,0,-1,-370.1396,1414.5581)"
       gradientUnits="userSpaceOnUse">
      <stop
         offset="0"
         style="stop-color:#FFFFFF;stop-opacity:0.5"
         id="stop3122" />
      <stop
         offset="1"
         style="stop-color:#FFFFFF;stop-opacity:0"
         id="stop3124" />
    </radialGradient>
    <radialGradient
       id="SVGID_20_"
       cx="1910.4883"
       cy="503.66379"
       r="466.0838"
       gradientTransform="matrix(1,0,0,-1,-370.1396,1414.5581)"
       gradientUnits="userSpaceOnUse">
      <stop
         offset="0"
         style="stop-color:#FFFFFF;stop-opacity:0.5"
         id="stop3129" />
      <stop
         offset="1"
         style="stop-color:#FFFFFF;stop-opacity:0"
         id="stop3131" />
    </radialGradient>
    <linearGradient
       id="SVGID_21_"
       gradientUnits="userSpaceOnUse"
       x1="1142.0469"
       y1="1043.9666"
       x2="1592.0254"
       y2="1043.9666"
       gradientTransform="matrix(0.5366,0,0,-0.4054,968.6461,1402.0491)">
      <stop
         offset="0"
         style="stop-color:#FFFFFF;stop-opacity:0.5"
         id="stop3136" />
      <stop
         offset="1"
         style="stop-color:#FFFFFF;stop-opacity:0"
         id="stop3138" />
    </linearGradient>
    <clipPath
       clipPathUnits="userSpaceOnUse"
       id="clipPath4302">
      <rect
         style="fill:#0000ff;fill-opacity:0.15837103;fill-rule:evenodd;stroke:#000000;stroke-width:0.9903481px;stroke-linecap:butt;stroke-linejoin:miter;stroke-opacity:1"
         id="rect4304"
         width="1020.0096"
         height="874.29529"
         x="-696.75702"
         y="-557.0932" />
    </clipPath>
    <clipPath
       clipPathUnits="userSpaceOnUse"
       id="clipPath4302-3">
      <rect
         style="fill:#0000ff;fill-opacity:0.15837103;fill-rule:evenodd;stroke:#000000;stroke-width:0.9903481px;stroke-linecap:butt;stroke-linejoin:miter;stroke-opacity:1"
         id="rect4304-6"
         width="1020.0096"
         height="874.29529"
         x="-696.75702"
         y="-557.0932" />
    </clipPath>
    <radialGradient
       id="SVGID_2_-7"
       cx="2146.8174"
       cy="478.19849"
       r="6.7435002"
       gradientTransform="matrix(1.0725,0,0,-0.9931,-583.3926,1412.5)"
       gradientUnits="userSpaceOnUse">
      <stop
         offset="0"
         style="stop-color:#FFF1E9"
         id="stop3002-5" />
      <stop
         offset="1"
         style="stop-color:#FFFFFF;stop-opacity:0.2"
         id="stop3004-3" />
    </radialGradient>
    <radialGradient
       id="SVGID_3_-5"
       cx="2176.1582"
       cy="498.5618"
       r="7.6339998"
       gradientTransform="matrix(1.0725,0,0,-0.9931,-583.3926,1412.5)"
       gradientUnits="userSpaceOnUse">
      <stop
         offset="0"
         style="stop-color:#FFF1E9"
         id="stop3009-6" />
      <stop
         offset="1"
         style="stop-color:#FFFFFF;stop-opacity:0.2"
         id="stop3011-2" />
    </radialGradient>
    <radialGradient
       id="SVGID_4_-9"
       cx="2185.4512"
       cy="528.25659"
       r="3.7077"
       gradientTransform="matrix(1.0725,0,0,-0.9931,-583.3926,1412.5)"
       gradientUnits="userSpaceOnUse">
      <stop
         offset="0"
         style="stop-color:#FFF1E9"
         id="stop3016-1" />
      <stop
         offset="1"
         style="stop-color:#FFFFFF;stop-opacity:0.2"
         id="stop3018-2" />
    </radialGradient>
    <radialGradient
       id="SVGID_5_-7"
       cx="2120.5449"
       cy="693.31232"
       r="3.3676"
       gradientTransform="matrix(1.0725,0,0,-0.9931,-583.3926,1412.5)"
       gradientUnits="userSpaceOnUse">
      <stop
         offset="0"
         style="stop-color:#FFF1E9"
         id="stop3023-0" />
      <stop
         offset="1"
         style="stop-color:#FFFFFF;stop-opacity:0.2"
         id="stop3025-9" />
    </radialGradient>
    <radialGradient
       id="SVGID_6_-3"
       cx="2121.502"
       cy="692.0271"
       r="0.86989999"
       gradientTransform="matrix(1.0725,0,0,-0.9931,-583.3926,1412.5)"
       gradientUnits="userSpaceOnUse">
      <stop
         offset="0"
         style="stop-color:#FFF1E9"
         id="stop3030-6" />
      <stop
         offset="1"
         style="stop-color:#FFFFFF;stop-opacity:0.2"
         id="stop3032-0" />
    </radialGradient>
    <radialGradient
       id="SVGID_7_-6"
       cx="2110.9863"
       cy="490.52371"
       r="181.8613"
       gradientTransform="matrix(1.0725,0,0,-0.9931,-583.3926,1412.5)"
       gradientUnits="userSpaceOnUse">
      <stop
         offset="0"
         style="stop-color:#FFF1E9"
         id="stop3037-2" />
      <stop
         offset="1"
         style="stop-color:#FFFFFF;stop-opacity:0.2"
         id="stop3039-6" />
    </radialGradient>
    <radialGradient
       id="SVGID_8_-1"
       cx="2075.959"
       cy="459.5647"
       r="9.1426001"
       gradientTransform="matrix(1.0725,0,0,-0.9931,-583.3926,1412.5)"
       gradientUnits="userSpaceOnUse">
      <stop
         offset="0"
         style="stop-color:#FFF1E9"
         id="stop3044-8" />
      <stop
         offset="1"
         style="stop-color:#FFFFFF;stop-opacity:0.2"
         id="stop3046-7" />
    </radialGradient>
    <radialGradient
       id="SVGID_9_-9"
       cx="2078.8184"
       cy="472.58179"
       r="5.9285998"
       gradientTransform="matrix(1.0725,0,0,-0.9931,-583.3926,1412.5)"
       gradientUnits="userSpaceOnUse">
      <stop
         offset="0"
         style="stop-color:#FFF1E9"
         id="stop3051-2" />
      <stop
         offset="1"
         style="stop-color:#FFFFFF;stop-opacity:0.2"
         id="stop3053-0" />
    </radialGradient>
    <radialGradient
       id="SVGID_10_-2"
       cx="2249.8457"
       cy="491.91821"
       r="15.0487"
       gradientTransform="matrix(1.0725,0,0,-0.9931,-583.3926,1412.5)"
       gradientUnits="userSpaceOnUse">
      <stop
         offset="0"
         style="stop-color:#FFF1E9"
         id="stop3058-3" />
      <stop
         offset="1"
         style="stop-color:#FFFFFF;stop-opacity:0.2"
         id="stop3060-7" />
    </radialGradient>
    <radialGradient
       id="SVGID_11_-5"
       cx="2123.4619"
       cy="698.66382"
       r="6.3271999"
       gradientTransform="matrix(1.0725,0,0,-0.9931,-583.3926,1412.5)"
       gradientUnits="userSpaceOnUse">
      <stop
         offset="0"
         style="stop-color:#FFF1E9"
         id="stop3065-9" />
      <stop
         offset="1"
         style="stop-color:#FFFFFF;stop-opacity:0.2"
         id="stop3067-2" />
    </radialGradient>
    <radialGradient
       id="SVGID_12_-2"
       cx="1966.1328"
       cy="605.51727"
       r="4.2332001"
       gradientTransform="matrix(1.0725,0,0,-0.9931,-583.3926,1412.5)"
       gradientUnits="userSpaceOnUse">
      <stop
         offset="0"
         style="stop-color:#FFF1E9"
         id="stop3072-8" />
      <stop
         offset="1"
         style="stop-color:#FFFFFF;stop-opacity:0.2"
         id="stop3074-9" />
    </radialGradient>
    <radialGradient
       id="SVGID_13_-7"
       cx="1956.8027"
       cy="572.02118"
       r="5.2405"
       gradientTransform="matrix(1.0725,0,0,-0.9931,-583.3926,1412.5)"
       gradientUnits="userSpaceOnUse">
      <stop
         offset="0"
         style="stop-color:#FFF1E9"
         id="stop3079-3" />
      <stop
         offset="1"
         style="stop-color:#FFFFFF;stop-opacity:0.2"
         id="stop3081-6" />
    </radialGradient>
    <radialGradient
       id="SVGID_19_-5"
       cx="1879.1934"
       cy="436.46701"
       r="486.3092"
       gradientTransform="matrix(1,0,0,-1,-370.1396,1414.5581)"
       gradientUnits="userSpaceOnUse">
      <stop
         offset="0"
         style="stop-color:#FFFFFF;stop-opacity:0.5"
         id="stop3122-0" />
      <stop
         offset="1"
         style="stop-color:#FFFFFF;stop-opacity:0"
         id="stop3124-3" />
    </radialGradient>
    <radialGradient
       id="SVGID_20_-6"
       cx="1910.4883"
       cy="503.66379"
       r="466.0838"
       gradientTransform="matrix(1,0,0,-1,-370.1396,1414.5581)"
       gradientUnits="userSpaceOnUse">
      <stop
         offset="0"
         style="stop-color:#FFFFFF;stop-opacity:0.5"
         id="stop3129-1" />
      <stop
         offset="1"
         style="stop-color:#FFFFFF;stop-opacity:0"
         id="stop3131-0" />
    </radialGradient>
  </defs>
  <sodipodi:namedview
     id="base"
     pagecolor="#ffffff"
     bordercolor="#666666"
     borderopacity="1.0"
     inkscape:pageopacity="0"
     inkscape:pageshadow="2"
     inkscape:zoom="0.35"
     inkscape:cx="-983.96212"
     inkscape:cy="409.55369"
     inkscape:document-units="px"
     inkscape:current-layer="layer1"
     showgrid="false"
     fit-margin-top="0"
     fit-margin-left="0"
     fit-margin-right="0"
     fit-margin-bottom="0"
     inkscape:window-width="1920"
     inkscape:window-height="1135"
     inkscape:window-x="1920"
     inkscape:window-y="0"
     inkscape:window-maximized="1" />
  <metadata
     id="metadata6375">
    <rdf:RDF>
      <cc:Work
         rdf:about="">
        <dc:format>image/svg+xml</dc:format>
        <dc:type
           rdf:resource="http://purl.org/dc/dcmitype/StillImage" />
        <dc:title />
      </cc:Work>
    </rdf:RDF>
  </metadata>
  <g
     inkscape:label="Calque 1"
     inkscape:groupmode="layer"
     id="layer1"
     transform="translate(696.75218,222.79791)">
    <g
       id="g4285"
       transform="matrix(1.1786412,0,0,1.1786412,-770.99202,-1013.13)"
       style="fill:#e6e6e6">
      <g
         style="opacity:0.25;fill:#e6e6e6"
         class="st252"
         id="g4287">
        <path
           style="fill:#e6e6e6"
           inkscape:connector-curvature="0"
           class="st251"
           d="m 198.6,959.9 c 0,20.2 -13.1,36.6 -29.2,36.6 -16.2,0 -29.3,-16.4 -29.3,-36.6 0,-20.2 13.1,-36.6 29.3,-36.6 16.1,0 29.2,16.4 29.2,36.6 z"
           id="path4289" />
        <path
           style="fill:#e6e6e6"
           inkscape:connector-curvature="0"
           class="st251"
           d="m 159.1,1030.1 c 0,13.5 -10.9,24.4 -24.4,24.4 -13.5,0 -24.4,-10.9 -24.4,-24.4 0,-13.5 10.9,-24.4 24.4,-24.4 13.5,0.1 24.4,11 24.4,24.4 z"
           id="path4291" />
        <path
           style="fill:#e6e6e6"
           inkscape:connector-curvature="0"
           class="st251"
           d="m 270.2,950.7 c -4.9,15.4 -15.1,25.9 -22.8,23.5 -7.7,-2.5 -10,-16.9 -5.1,-32.3 4.9,-15.4 15.1,-25.9 22.8,-23.4 7.7,2.3 10,16.8 5.1,32.2 z"
           id="path4293" />
        <path
           style="fill:#e6e6e6"
           inkscape:connector-curvature="0"
           class="st251"
           d="m 233.4,1037.6 c 0,8.1 -7.6,14.6 -17.1,14.6 -9.4,0 -17.1,-6.5 -17.1,-14.6 0,-8.1 7.6,-14.6 17.1,-14.6 9.5,0 17.1,6.6 17.1,14.6 z"
           id="path4295" />
      </g>
      <g
         id="g4297"
         style="fill:#e6e6e6">
        <path
           style="fill:#e6e6e6"
           inkscape:connector-curvature="0"
           class="st251"
           d="m 183.6,1013.4 c 0,3.4 -1.2,6.3 -3.6,8.7 -2.4,2.4 -5.3,3.6 -8.7,3.6 h -2.5 c -1.7,0 -2.5,0.8 -2.5,2.5 v 9.8 c 0,1.4 -0.5,2.5 -1.4,3.5 -0.9,1 -2.1,1.4 -3.5,1.4 h -2.5 c -1.4,0 -2.5,-0.5 -3.5,-1.4 -0.9,-1 -1.4,-2.1 -1.4,-3.5 v -56.8 c 0,-3.4 1.2,-6.3 3.6,-8.7 2.4,-2.4 5.3,-3.6 8.8,-3.6 h 5 c 3.4,0 6.3,1.2 8.7,3.6 2.4,2.4 3.6,5.3 3.6,8.7 v 32.2 z m -12.4,-2.5 v -27.1 c 0,-1.6 -0.8,-2.5 -2.5,-2.5 -1.7,0 -2.5,0.8 -2.5,2.5 v 27.1 c 0,1.6 0.8,2.5 2.5,2.5 1.7,-0.1 2.5,-0.9 2.5,-2.5 z"
           id="path4299" />
        <path
           style="fill:#e6e6e6"
           inkscape:connector-curvature="0"
           class="st251"
           d="m 220.1,1030.6 c 0,3.4 -1.2,6.3 -3.6,8.7 -2.4,2.4 -5.3,3.6 -8.7,3.6 h -5.1 c -3.4,0 -6.3,-1.2 -8.7,-3.6 -2.4,-2.4 -3.6,-5.3 -3.6,-8.7 v -4.9 c 0,-3.4 1.2,-6.3 3.6,-8.7 2.4,-2.4 5.3,-3.6 8.7,-3.6 h 2.5 c 1.7,0 2.5,-0.8 2.5,-2.5 v -27.3 c 0,-1.7 -0.8,-2.5 -2.5,-2.5 -1.6,0 -2.5,0.8 -2.5,2.5 v 19.8 c 0,1.4 -0.5,2.6 -1.4,3.5 -1,1 -2.1,1.4 -3.5,1.4 h -2.5 c -1.4,0 -2.5,-0.5 -3.5,-1.4 -1,-1 -1.4,-2.1 -1.4,-3.5 v -22.2 c 0,-3.4 1.2,-6.3 3.6,-8.7 2.4,-2.4 5.3,-3.6 8.7,-3.6 h 5.1 c 3.4,0 6.3,1.2 8.7,3.6 2.4,2.4 3.6,5.3 3.6,8.7 z m -12.4,-2.5 c 0,-1.6 -0.8,-2.5 -2.5,-2.5 -1.6,0 -2.5,0.8 -2.5,2.5 0,1.6 0.8,2.5 2.5,2.5 1.7,0 2.5,-0.8 2.5,-2.5 z"
           id="path4301" />
        <path
           style="fill:#e6e6e6"
           inkscape:connector-curvature="0"
           class="st251"
           d="m 256.6,1003.5 c 0,1.4 -0.5,2.6 -1.4,3.5 -0.9,1 -2.1,1.4 -3.5,1.4 h -2.5 c -1.4,0 -2.5,-0.5 -3.5,-1.4 -0.9,-1 -1.4,-2.1 -1.4,-3.5 v -19.8 c 0,-1.6 -0.8,-2.5 -2.5,-2.5 -1.7,0 -2.5,0.8 -2.5,2.5 v 54.3 c 0,1.4 -0.5,2.6 -1.4,3.5 -0.9,1 -2.1,1.4 -3.5,1.4 h -2.5 c -1.4,0 -2.5,-0.5 -3.5,-1.4 -0.9,-1 -1.4,-2.1 -1.4,-3.5 v -56.7 c 0,-3.4 1.2,-6.3 3.6,-8.7 2.4,-2.4 5.3,-3.6 8.7,-3.6 h 4.9 c 3.4,0 6.3,1.2 8.7,3.6 2.4,2.4 3.6,5.3 3.6,8.7 z"
           id="path4303" />
        <path
           style="fill:#e6e6e6"
           inkscape:connector-curvature="0"
           class="st251"
           d="m 293.1,1030.6 c 0,3.4 -1.2,6.3 -3.6,8.7 -2.4,2.4 -5.3,3.6 -8.7,3.6 h -12.4 c -1.4,0 -2.6,-0.5 -3.5,-1.4 -1,-1 -1.4,-2.1 -1.4,-3.5 v -64.1 c 0,-1.4 0.5,-2.5 1.4,-3.5 1,-1 2.1,-1.4 3.5,-1.4 h 12.4 c 3.4,0 6.3,1.2 8.7,3.6 2.4,2.4 3.6,5.3 3.6,8.7 z m -12.4,-2.5 v -44.4 c 0,-1.6 -0.8,-2.5 -2.5,-2.5 -1.7,0 -2.5,0.8 -2.5,2.5 v 44.4 c 0,1.6 0.8,2.5 2.5,2.5 1.7,0 2.5,-0.8 2.5,-2.5 z"
           id="path4305" />
        <path
           style="fill:#e6e6e6"
           inkscape:connector-curvature="0"
           class="st251"
           d="m 329.6,1030.6 c 0,3.4 -1.2,6.3 -3.6,8.7 -2.4,2.4 -5.3,3.6 -8.7,3.6 h -5.1 c -3.4,0 -6.3,-1.2 -8.7,-3.6 -2.4,-2.4 -3.6,-5.3 -3.6,-8.7 v -56.8 c 0,-1.4 0.5,-2.6 1.4,-3.5 1,-1 2.1,-1.4 3.5,-1.4 h 2.5 c 1.4,0 2.5,0.5 3.5,1.4 1,1 1.4,2.1 1.4,3.5 v 54.3 c 0,1.6 0.8,2.5 2.5,2.5 1.6,0 2.5,-0.8 2.5,-2.5 v -54.3 c 0,-1.4 0.5,-2.5 1.4,-3.5 1,-1 2.1,-1.4 3.5,-1.4 h 2.5 c 1.4,0 2.5,0.5 3.5,1.4 1,1 1.4,2.1 1.4,3.5 v 56.8 z"
           id="path4307" />
        <path
           style="fill:#e6e6e6"
           inkscape:connector-curvature="0"
           class="st251"
           d="m 366.1,1030.6 c 0,3.4 -1.2,6.3 -3.6,8.7 -2.4,2.4 -5.3,3.6 -8.7,3.6 h -12.4 c -1.4,0 -2.6,-0.5 -3.5,-1.4 -1,-1 -1.4,-2.1 -1.4,-3.5 v -2.5 c 0,-1.4 0.5,-2.5 1.4,-3.5 1,-1 2.1,-1.4 3.5,-1.4 h 9.9 c 1.6,0 2.5,-0.8 2.5,-2.4 0,-1.6 -0.8,-2.4 -2.5,-2.4 h -2.5 c -3.4,0 -6.3,-1.2 -8.7,-3.6 -2.4,-2.4 -3.6,-5.3 -3.6,-8.7 v -32.2 c 0,-3.4 1.2,-6.3 3.6,-8.7 2.4,-2.4 5.3,-3.6 8.7,-3.6 h 5.1 c 3.4,0 6.3,1.2 8.7,3.6 2.4,2.4 3.6,5.3 3.6,8.7 v 22.3 c 0,1.4 -0.5,2.6 -1.4,3.5 -1,1 -2.1,1.4 -3.5,1.4 h -2.5 c -1.4,0 -2.5,-0.5 -3.5,-1.4 -1,-1 -1.4,-2.1 -1.4,-3.5 v -19.7 c 0,-1.6 -0.8,-2.5 -2.5,-2.5 -1.6,0 -2.5,0.8 -2.5,2.5 v 27.1 c 0,1.6 0.8,2.5 2.5,2.5 h 2.5 c 3.4,0 6.3,1.2 8.7,3.6 2.4,2.4 3.6,5.3 3.6,8.8 v 4.7 z"
           id="path4309" />
      </g>
    </g>
  </g>
</svg>
